G04 #@! TF.GenerationSoftware,KiCad,Pcbnew,8.0.2-1*
G04 #@! TF.CreationDate,2024-09-04T16:21:55-07:00*
G04 #@! TF.ProjectId,laserBoxNew,6c617365-7242-46f7-984e-65772e6b6963,v01*
G04 #@! TF.SameCoordinates,Original*
G04 #@! TF.FileFunction,Soldermask,Top*
G04 #@! TF.FilePolarity,Negative*
%FSLAX46Y46*%
G04 Gerber Fmt 4.6, Leading zero omitted, Abs format (unit mm)*
G04 Created by KiCad (PCBNEW 8.0.2-1) date 2024-09-04 16:21:55*
%MOMM*%
%LPD*%
G01*
G04 APERTURE LIST*
G04 Aperture macros list*
%AMRoundRect*
0 Rectangle with rounded corners*
0 $1 Rounding radius*
0 $2 $3 $4 $5 $6 $7 $8 $9 X,Y pos of 4 corners*
0 Add a 4 corners polygon primitive as box body*
4,1,4,$2,$3,$4,$5,$6,$7,$8,$9,$2,$3,0*
0 Add four circle primitives for the rounded corners*
1,1,$1+$1,$2,$3*
1,1,$1+$1,$4,$5*
1,1,$1+$1,$6,$7*
1,1,$1+$1,$8,$9*
0 Add four rect primitives between the rounded corners*
20,1,$1+$1,$2,$3,$4,$5,0*
20,1,$1+$1,$4,$5,$6,$7,0*
20,1,$1+$1,$6,$7,$8,$9,0*
20,1,$1+$1,$8,$9,$2,$3,0*%
G04 Aperture macros list end*
%ADD10C,3.263900*%
%ADD11RoundRect,0.200000X-0.275000X0.200000X-0.275000X-0.200000X0.275000X-0.200000X0.275000X0.200000X0*%
%ADD12RoundRect,0.200000X0.275000X-0.200000X0.275000X0.200000X-0.275000X0.200000X-0.275000X-0.200000X0*%
%ADD13O,1.800000X1.800000*%
%ADD14O,1.500000X1.500000*%
%ADD15O,1.700000X1.700000*%
%ADD16R,1.700000X3.500000*%
%ADD17R,1.700000X1.700000*%
%ADD18R,3.500000X1.700000*%
%ADD19RoundRect,0.150000X-0.662500X-0.150000X0.662500X-0.150000X0.662500X0.150000X-0.662500X0.150000X0*%
%ADD20R,2.514000X3.200000*%
%ADD21RoundRect,0.225000X0.250000X-0.225000X0.250000X0.225000X-0.250000X0.225000X-0.250000X-0.225000X0*%
%ADD22RoundRect,0.200000X0.450000X-0.200000X0.450000X0.200000X-0.450000X0.200000X-0.450000X-0.200000X0*%
%ADD23RoundRect,0.250001X1.249999X-0.799999X1.249999X0.799999X-1.249999X0.799999X-1.249999X-0.799999X0*%
%ADD24R,1.905000X2.000000*%
%ADD25O,1.905000X2.000000*%
%ADD26RoundRect,0.200000X0.200000X0.275000X-0.200000X0.275000X-0.200000X-0.275000X0.200000X-0.275000X0*%
%ADD27R,1.250000X1.220000*%
%ADD28R,1.220000X1.250000*%
%ADD29RoundRect,0.225000X-0.225000X-0.250000X0.225000X-0.250000X0.225000X0.250000X-0.225000X0.250000X0*%
%ADD30RoundRect,0.150000X-0.625000X0.150000X-0.625000X-0.150000X0.625000X-0.150000X0.625000X0.150000X0*%
%ADD31RoundRect,0.250000X-0.650000X0.350000X-0.650000X-0.350000X0.650000X-0.350000X0.650000X0.350000X0*%
%ADD32RoundRect,0.375000X-0.375000X0.625000X-0.375000X-0.625000X0.375000X-0.625000X0.375000X0.625000X0*%
%ADD33RoundRect,0.500000X-1.400000X0.500000X-1.400000X-0.500000X1.400000X-0.500000X1.400000X0.500000X0*%
%ADD34R,1.500000X1.000000*%
%ADD35C,1.600000*%
%ADD36R,2.000000X4.000000*%
%ADD37O,2.000000X3.300000*%
%ADD38O,3.500000X2.000000*%
G04 APERTURE END LIST*
D10*
X82804000Y-37592000D03*
X82804000Y-126492000D03*
X190754000Y-126492000D03*
X190754000Y-37592000D03*
D11*
X178193500Y-92034500D03*
X178193500Y-93684500D03*
D12*
X174891500Y-77504500D03*
X174891500Y-75854500D03*
D11*
X150683000Y-107928000D03*
X150683000Y-109578000D03*
D13*
X80775000Y-84640000D03*
D14*
X83805000Y-84340000D03*
X83805000Y-79490000D03*
D13*
X80775000Y-79190000D03*
D15*
X80645000Y-90805000D03*
D16*
X80645000Y-91705000D03*
D15*
X83185000Y-90805000D03*
D16*
X83185000Y-91705000D03*
D17*
X85725000Y-90805000D03*
D16*
X85725000Y-91705000D03*
D15*
X88265000Y-90805000D03*
D16*
X88265000Y-91705000D03*
D15*
X90805000Y-90805000D03*
D16*
X90805000Y-91705000D03*
D15*
X93345000Y-90805000D03*
D16*
X93345000Y-91705000D03*
D15*
X95885000Y-90805000D03*
D16*
X95885000Y-91705000D03*
D17*
X98425000Y-90805000D03*
D16*
X98425000Y-91705000D03*
D15*
X100965000Y-90805000D03*
D16*
X100965000Y-91705000D03*
D15*
X103505000Y-90805000D03*
D16*
X103505000Y-91705000D03*
D15*
X106045000Y-90805000D03*
D16*
X106045000Y-91705000D03*
D15*
X108585000Y-90805000D03*
D16*
X108585000Y-91705000D03*
D17*
X111125000Y-90805000D03*
D16*
X111125000Y-91705000D03*
D15*
X113665000Y-90805000D03*
D16*
X113665000Y-91705000D03*
D15*
X116205000Y-90805000D03*
D16*
X116205000Y-91705000D03*
D15*
X118745000Y-90805000D03*
D16*
X118745000Y-91705000D03*
D15*
X121285000Y-90805000D03*
D16*
X121285000Y-91705000D03*
D17*
X123825000Y-90805000D03*
D16*
X123825000Y-91705000D03*
D15*
X126365000Y-90805000D03*
D16*
X126365000Y-91705000D03*
D15*
X128905000Y-90805000D03*
D16*
X128905000Y-91705000D03*
D15*
X128905000Y-73025000D03*
D16*
X128905000Y-72125000D03*
D15*
X126365000Y-73025000D03*
D16*
X126365000Y-72125000D03*
D17*
X123825000Y-73025000D03*
D16*
X123825000Y-72125000D03*
D15*
X121285000Y-73025000D03*
D16*
X121285000Y-72125000D03*
D15*
X118745000Y-73025000D03*
D16*
X118745000Y-72125000D03*
D15*
X116205000Y-73025000D03*
D16*
X116205000Y-72125000D03*
D15*
X113665000Y-73025000D03*
D16*
X113665000Y-72125000D03*
D17*
X111125000Y-73025000D03*
D16*
X111125000Y-72125000D03*
D15*
X108585000Y-73025000D03*
D16*
X108585000Y-72125000D03*
D15*
X106045000Y-73025000D03*
D16*
X106045000Y-72125000D03*
D15*
X103505000Y-73025000D03*
D16*
X103505000Y-72125000D03*
D15*
X100965000Y-73025000D03*
D16*
X100965000Y-72125000D03*
D17*
X98425000Y-73025000D03*
D16*
X98425000Y-72125000D03*
D15*
X95885000Y-73025000D03*
D16*
X95885000Y-72125000D03*
D15*
X93345000Y-73025000D03*
D16*
X93345000Y-72125000D03*
D15*
X90805000Y-73025000D03*
D16*
X90805000Y-72125000D03*
D15*
X88265000Y-73025000D03*
D16*
X88265000Y-72125000D03*
D17*
X85725000Y-73025000D03*
D16*
X85725000Y-72125000D03*
D15*
X83185000Y-73025000D03*
D16*
X83185000Y-72125000D03*
D15*
X80645000Y-73025000D03*
D16*
X80645000Y-72125000D03*
D15*
X128675000Y-84455000D03*
D18*
X129575000Y-84455000D03*
D17*
X128675000Y-81915000D03*
D18*
X129575000Y-81915000D03*
D15*
X128675000Y-79375000D03*
D18*
X129575000Y-79375000D03*
D12*
X147452000Y-60950000D03*
X147452000Y-59300000D03*
D19*
X180687000Y-105876500D03*
X180687000Y-107146500D03*
X180687000Y-108416500D03*
X180687000Y-109686500D03*
X185962000Y-109686500D03*
X185962000Y-108416500D03*
X185962000Y-107146500D03*
X185962000Y-105876500D03*
D20*
X183324500Y-107781500D03*
D11*
X144658000Y-88434000D03*
X144658000Y-90084000D03*
D21*
X175074500Y-106524500D03*
X175074500Y-104974500D03*
D22*
X189160000Y-74383500D03*
X189160000Y-73133500D03*
D23*
X191910000Y-76933500D03*
X191910000Y-70583500D03*
D24*
X184665500Y-51063500D03*
D25*
X182125500Y-51063500D03*
X179585500Y-51063500D03*
D11*
X172097500Y-88732500D03*
X172097500Y-90382500D03*
D12*
X178122500Y-106574500D03*
X178122500Y-104924500D03*
D24*
X184665500Y-67319500D03*
D25*
X182125500Y-67319500D03*
X179585500Y-67319500D03*
D12*
X175145500Y-93684500D03*
X175145500Y-92034500D03*
D11*
X144404000Y-72254000D03*
X144404000Y-73904000D03*
D21*
X174891500Y-74152500D03*
X174891500Y-72602500D03*
D26*
X187583500Y-111845500D03*
X185933500Y-111845500D03*
D24*
X157480000Y-83201000D03*
D25*
X154940000Y-83201000D03*
X152400000Y-83201000D03*
D11*
X150754000Y-91736000D03*
X150754000Y-93386000D03*
D27*
X94537000Y-65278000D03*
X97487000Y-65278000D03*
D19*
X180504000Y-57248500D03*
X180504000Y-58518500D03*
X180504000Y-59788500D03*
X180504000Y-61058500D03*
X185779000Y-61058500D03*
X185779000Y-59788500D03*
X185779000Y-58518500D03*
X185779000Y-57248500D03*
D20*
X183141500Y-59153500D03*
D19*
X153064500Y-56950000D03*
X153064500Y-58220000D03*
X153064500Y-59490000D03*
X153064500Y-60760000D03*
X158339500Y-60760000D03*
X158339500Y-59490000D03*
X158339500Y-58220000D03*
X158339500Y-56950000D03*
D20*
X155702000Y-58855000D03*
D24*
X184848500Y-99691500D03*
D25*
X182308500Y-99691500D03*
X179768500Y-99691500D03*
D12*
X150754000Y-90084000D03*
X150754000Y-88434000D03*
D28*
X95250000Y-43278000D03*
X95250000Y-46228000D03*
D29*
X101333000Y-51968000D03*
X102883000Y-51968000D03*
D26*
X187654500Y-95653500D03*
X186004500Y-95653500D03*
D11*
X113792000Y-63691000D03*
X113792000Y-65341000D03*
D12*
X147706000Y-93386000D03*
X147706000Y-91736000D03*
D29*
X97256000Y-51968000D03*
X98806000Y-51968000D03*
D24*
X184919500Y-83499500D03*
D25*
X182379500Y-83499500D03*
X179839500Y-83499500D03*
D19*
X153318500Y-89386000D03*
X153318500Y-90656000D03*
X153318500Y-91926000D03*
X153318500Y-93196000D03*
X158593500Y-93196000D03*
X158593500Y-91926000D03*
X158593500Y-90656000D03*
X158593500Y-89386000D03*
D20*
X155956000Y-91291000D03*
D12*
X175074500Y-109876500D03*
X175074500Y-108226500D03*
X174891500Y-61248500D03*
X174891500Y-59598500D03*
D30*
X84042000Y-43966000D03*
X84042000Y-44966000D03*
X84042000Y-45966000D03*
X84042000Y-46966000D03*
D31*
X80167000Y-42666000D03*
X80167000Y-48266000D03*
D21*
X147452000Y-57598000D03*
X147452000Y-56048000D03*
D11*
X144404000Y-55998000D03*
X144404000Y-57648000D03*
D28*
X92202000Y-43278000D03*
X92202000Y-46228000D03*
D19*
X180758000Y-89684500D03*
X180758000Y-90954500D03*
X180758000Y-92224500D03*
X180758000Y-93494500D03*
X186033000Y-93494500D03*
X186033000Y-92224500D03*
X186033000Y-90954500D03*
X186033000Y-89684500D03*
D20*
X183395500Y-91589500D03*
D21*
X147452000Y-73854000D03*
X147452000Y-72304000D03*
D26*
X187400500Y-79473500D03*
X185750500Y-79473500D03*
D12*
X178193500Y-90382500D03*
X178193500Y-88732500D03*
D11*
X150500000Y-59300000D03*
X150500000Y-60950000D03*
X171843500Y-72552500D03*
X171843500Y-74202500D03*
D19*
X153247500Y-105578000D03*
X153247500Y-106848000D03*
X153247500Y-108118000D03*
X153247500Y-109388000D03*
X158522500Y-109388000D03*
X158522500Y-108118000D03*
X158522500Y-106848000D03*
X158522500Y-105578000D03*
D20*
X155885000Y-107483000D03*
D12*
X150500000Y-73904000D03*
X150500000Y-72254000D03*
D26*
X159961000Y-62919000D03*
X158311000Y-62919000D03*
D12*
X147635000Y-109578000D03*
X147635000Y-107928000D03*
D21*
X147706000Y-90034000D03*
X147706000Y-88484000D03*
X175145500Y-90332500D03*
X175145500Y-88782500D03*
D22*
X189343000Y-106755500D03*
X189343000Y-105505500D03*
D23*
X192093000Y-109305500D03*
X192093000Y-102955500D03*
D26*
X160144000Y-111547000D03*
X158494000Y-111547000D03*
D12*
X177939500Y-74202500D03*
X177939500Y-72552500D03*
X150683000Y-106276000D03*
X150683000Y-104626000D03*
D11*
X177939500Y-59598500D03*
X177939500Y-61248500D03*
D26*
X187400500Y-63217500D03*
X185750500Y-63217500D03*
X159961000Y-79175000D03*
X158311000Y-79175000D03*
D32*
X102376000Y-54406000D03*
X100076000Y-54406000D03*
D33*
X100076000Y-60706000D03*
D32*
X97776000Y-54406000D03*
D21*
X174891500Y-57896500D03*
X174891500Y-56346500D03*
D12*
X147452000Y-77206000D03*
X147452000Y-75556000D03*
D34*
X99314000Y-44103000D03*
X99314000Y-45403000D03*
D22*
X161903500Y-106457000D03*
X161903500Y-105207000D03*
D23*
X164653500Y-109007000D03*
X164653500Y-102657000D03*
D22*
X189414000Y-90563500D03*
X189414000Y-89313500D03*
D23*
X192164000Y-93113500D03*
X192164000Y-86763500D03*
D22*
X161974500Y-90265000D03*
X161974500Y-89015000D03*
D23*
X164724500Y-92815000D03*
X164724500Y-86465000D03*
D22*
X189160000Y-58127500D03*
X189160000Y-56877500D03*
D23*
X191910000Y-60677500D03*
X191910000Y-54327500D03*
D24*
X157226000Y-67021000D03*
D25*
X154686000Y-67021000D03*
X152146000Y-67021000D03*
D11*
X144587000Y-104626000D03*
X144587000Y-106276000D03*
D24*
X157409000Y-99393000D03*
D25*
X154869000Y-99393000D03*
X152329000Y-99393000D03*
D19*
X153064500Y-73206000D03*
X153064500Y-74476000D03*
X153064500Y-75746000D03*
X153064500Y-77016000D03*
X158339500Y-77016000D03*
X158339500Y-75746000D03*
X158339500Y-74476000D03*
X158339500Y-73206000D03*
D20*
X155702000Y-75111000D03*
D11*
X178122500Y-108226500D03*
X178122500Y-109876500D03*
X150500000Y-75556000D03*
X150500000Y-77206000D03*
D21*
X147635000Y-106226000D03*
X147635000Y-104676000D03*
D19*
X180504000Y-73504500D03*
X180504000Y-74774500D03*
X180504000Y-76044500D03*
X180504000Y-77314500D03*
X185779000Y-77314500D03*
X185779000Y-76044500D03*
X185779000Y-74774500D03*
X185779000Y-73504500D03*
D20*
X183141500Y-75409500D03*
D24*
X157226000Y-50765000D03*
D25*
X154686000Y-50765000D03*
X152146000Y-50765000D03*
D26*
X160215000Y-95355000D03*
X158565000Y-95355000D03*
D12*
X150500000Y-57648000D03*
X150500000Y-55998000D03*
D35*
X82328000Y-56714000D03*
D36*
X91328000Y-56714000D03*
D37*
X85328000Y-56714000D03*
D38*
X84328000Y-52214000D03*
X84328000Y-61214000D03*
D22*
X161720500Y-74085000D03*
X161720500Y-72835000D03*
D23*
X164470500Y-76635000D03*
X164470500Y-70285000D03*
D11*
X116078000Y-63691000D03*
X116078000Y-65341000D03*
X172026500Y-104924500D03*
X172026500Y-106574500D03*
X171843500Y-56296500D03*
X171843500Y-57946500D03*
X177939500Y-75854500D03*
X177939500Y-77504500D03*
D22*
X161720500Y-57829000D03*
X161720500Y-56579000D03*
D23*
X164470500Y-60379000D03*
X164470500Y-54029000D03*
D12*
X177939500Y-57946500D03*
X177939500Y-56296500D03*
M02*
