M48
; DRILL file {KiCad 8.0.2-1} date 2024-09-04T16:21:50-0700
; FORMAT={-:-/ absolute / inch / decimal}
; #@! TF.CreationDate,2024-09-04T16:21:50-07:00
; #@! TF.GenerationSoftware,Kicad,Pcbnew,8.0.2-1
; #@! TF.FileFunction,Plated,1,2,PTH
FMAT,2
INCH
; #@! TA.AperFunction,Plated,PTH,ViaDrill
T1C0.0150
; #@! TA.AperFunction,Plated,PTH,ComponentDrill
T2C0.0394
; #@! TA.AperFunction,Plated,PTH,ComponentDrill
T3C0.0402
; #@! TA.AperFunction,Plated,PTH,ComponentDrill
T4C0.0433
%
G90
G05
T1
X3.375Y-1.77
X3.56Y-2.51
X3.6Y-2.57
X3.75Y-1.61
X3.75Y-1.92
X4.31Y-2.05
X4.31Y-2.19
X4.48Y-2.3
X4.5Y-2.02
X4.52Y-2.1286
X4.52Y-2.64
X4.565Y-2.025
X4.565Y-2.29
X5.75Y-3.15
X5.8Y-2.08
X5.81Y-2.7486
X5.81Y-3.3986
X5.81Y-4.0486
X5.855Y-2.485
X6.12Y-2.17
X6.1218Y-2.8112
X6.1268Y-4.0862
X6.1318Y-3.4512
X6.2962Y-2.2521
X6.2962Y-2.8921
X6.3008Y-3.5205
X6.3034Y-4.1666
X6.3322Y-2.1928
X6.475Y-2.55
X6.675Y-4.25
X6.6875Y-3.6375
X6.75Y-3.95
X6.775Y-3.35
X6.7875Y-3.125
X6.8125Y-2.6625
X6.85Y-2.4875
X6.9003Y-2.1104
X6.9003Y-2.7604
X6.9003Y-3.4104
X6.9003Y-4.0604
X7.0875Y-2.4875
X7.0875Y-3.7875
X7.1Y-3.125
X7.2021Y-2.1862
X7.2021Y-2.8212
X7.2071Y-4.0962
X7.2121Y-3.4612
X7.2125Y-3.7875
X7.2375Y-3.1625
X7.2625Y-2.525
X7.3765Y-2.2639
X7.3765Y-2.9039
X7.3837Y-4.1784
X7.3865Y-3.5409
T3
X3.175Y-2.875
X3.175Y-3.575
X3.275Y-2.875
X3.275Y-3.575
X3.375Y-2.875
X3.375Y-3.575
X3.475Y-2.875
X3.475Y-3.575
X3.575Y-2.875
X3.575Y-3.575
X3.675Y-2.875
X3.675Y-3.575
X3.775Y-2.875
X3.775Y-3.575
X3.875Y-2.875
X3.875Y-3.575
X3.975Y-2.875
X3.975Y-3.575
X4.075Y-2.875
X4.075Y-3.575
X4.175Y-2.875
X4.175Y-3.575
X4.275Y-2.875
X4.275Y-3.575
X4.375Y-2.875
X4.375Y-3.575
X4.475Y-2.875
X4.475Y-3.575
X4.575Y-2.875
X4.575Y-3.575
X4.675Y-2.875
X4.675Y-3.575
X4.775Y-2.875
X4.775Y-3.575
X4.875Y-2.875
X4.875Y-3.575
X4.975Y-2.875
X4.975Y-3.575
X5.0659Y-3.125
X5.0659Y-3.225
X5.0659Y-3.325
X5.075Y-2.875
X5.075Y-3.575
T4
X5.99Y-1.9986
X5.99Y-2.6386
X5.9972Y-3.9131
X6.0Y-3.2756
X6.09Y-1.9986
X6.09Y-2.6386
X6.0972Y-3.9131
X6.1Y-3.2756
X6.19Y-1.9986
X6.19Y-2.6386
X6.1972Y-3.9131
X6.2Y-3.2756
X7.0703Y-2.0104
X7.0703Y-2.6504
X7.0775Y-3.9249
X7.0803Y-3.2874
X7.1703Y-2.0104
X7.1703Y-2.6504
X7.1775Y-3.9249
X7.1803Y-3.2874
X7.2703Y-2.0104
X7.2703Y-2.6504
X7.2775Y-3.9249
X7.2803Y-3.2874
T2
G00X3.3495Y-2.0557
M15
G01X3.2905Y-2.0557
M16
G05
G00X3.3495Y-2.41
M15
G01X3.2905Y-2.41
M16
G05
G00X3.3594Y-2.2072
M15
G01X3.3594Y-2.2584
M16
G05
G00X3.5956Y-2.1935
M15
G01X3.5956Y-2.2722
M16
G05
M30
