%TF.GenerationSoftware,KiCad,Pcbnew,8.0.2-1*%
%TF.CreationDate,2024-09-04T16:21:51-07:00*%
%TF.ProjectId,laserBoxNew,6c617365-7242-46f7-984e-65772e6b6963,v01*%
%TF.SameCoordinates,Original*%
%TF.FileFunction,Drillmap*%
%TF.FilePolarity,Positive*%
%FSLAX45Y45*%
G04 Gerber Fmt 4.5, Leading zero omitted, Abs format (unit mm)*
G04 Created by KiCad (PCBNEW 8.0.2-1) date 2024-09-04 16:21:51*
%MOMM*%
%LPD*%
G01*
G04 APERTURE LIST*
%ADD10C,0.127000*%
%ADD11C,0.200000*%
%ADD12C,0.100000*%
%ADD13C,0.102000*%
%ADD14C,0.110000*%
G04 APERTURE END LIST*
D10*
X7772400Y-3251200D02*
X19583400Y-3251200D01*
X19583400Y-13157200D01*
X7772400Y-13157200D01*
X7772400Y-3251200D01*
D11*
D12*
X8553450Y-4476750D02*
X8591550Y-4514850D01*
X8591550Y-4476750D02*
X8553450Y-4514850D01*
X9023350Y-6356350D02*
X9061450Y-6394450D01*
X9061450Y-6356350D02*
X9023350Y-6394450D01*
X9124950Y-6508750D02*
X9163050Y-6546850D01*
X9163050Y-6508750D02*
X9124950Y-6546850D01*
X9505950Y-4070350D02*
X9544050Y-4108450D01*
X9544050Y-4070350D02*
X9505950Y-4108450D01*
X9505950Y-4857750D02*
X9544050Y-4895850D01*
X9544050Y-4857750D02*
X9505950Y-4895850D01*
X10928350Y-5187950D02*
X10966450Y-5226050D01*
X10966450Y-5187950D02*
X10928350Y-5226050D01*
X10928350Y-5543550D02*
X10966450Y-5581650D01*
X10966450Y-5543550D02*
X10928350Y-5581650D01*
X11360150Y-5822950D02*
X11398250Y-5861050D01*
X11398250Y-5822950D02*
X11360150Y-5861050D01*
X11410950Y-5111750D02*
X11449050Y-5149850D01*
X11449050Y-5111750D02*
X11410950Y-5149850D01*
X11461750Y-5387650D02*
X11499850Y-5425750D01*
X11499850Y-5387650D02*
X11461750Y-5425750D01*
X11461750Y-6686550D02*
X11499850Y-6724650D01*
X11499850Y-6686550D02*
X11461750Y-6724650D01*
X11576050Y-5124450D02*
X11614150Y-5162550D01*
X11614150Y-5124450D02*
X11576050Y-5162550D01*
X11576050Y-5797550D02*
X11614150Y-5835650D01*
X11614150Y-5797550D02*
X11576050Y-5835650D01*
X14585950Y-7981950D02*
X14624050Y-8020050D01*
X14624050Y-7981950D02*
X14585950Y-8020050D01*
X14712950Y-5264150D02*
X14751050Y-5302250D01*
X14751050Y-5264150D02*
X14712950Y-5302250D01*
X14738350Y-6962450D02*
X14776450Y-7000550D01*
X14776450Y-6962450D02*
X14738350Y-7000550D01*
X14738350Y-8613450D02*
X14776450Y-8651550D01*
X14776450Y-8613450D02*
X14738350Y-8651550D01*
X14738350Y-10264450D02*
X14776450Y-10302550D01*
X14776450Y-10264450D02*
X14738350Y-10302550D01*
X14852650Y-6292850D02*
X14890750Y-6330950D01*
X14890750Y-6292850D02*
X14852650Y-6330950D01*
X15525750Y-5492750D02*
X15563850Y-5530850D01*
X15563850Y-5492750D02*
X15525750Y-5530850D01*
X15530350Y-7121500D02*
X15568450Y-7159600D01*
X15568450Y-7121500D02*
X15530350Y-7159600D01*
X15543050Y-10360000D02*
X15581150Y-10398100D01*
X15581150Y-10360000D02*
X15543050Y-10398100D01*
X15555750Y-8747100D02*
X15593850Y-8785200D01*
X15593850Y-8747100D02*
X15555750Y-8785200D01*
X15973200Y-5701350D02*
X16011300Y-5739450D01*
X16011300Y-5701350D02*
X15973200Y-5739450D01*
X15973200Y-7326950D02*
X16011300Y-7365050D01*
X16011300Y-7326950D02*
X15973200Y-7365050D01*
X15985050Y-8922966D02*
X16023150Y-8961066D01*
X16023150Y-8922966D02*
X15985050Y-8961066D01*
X15991500Y-10564150D02*
X16029600Y-10602250D01*
X16029600Y-10564150D02*
X15991500Y-10602250D01*
X16064775Y-5550625D02*
X16102875Y-5588725D01*
X16102875Y-5550625D02*
X16064775Y-5588725D01*
X16427450Y-6457950D02*
X16465550Y-6496050D01*
X16465550Y-6457950D02*
X16427450Y-6496050D01*
X16935450Y-10775950D02*
X16973550Y-10814050D01*
X16973550Y-10775950D02*
X16935450Y-10814050D01*
X16967200Y-9220200D02*
X17005300Y-9258300D01*
X17005300Y-9220200D02*
X16967200Y-9258300D01*
X17125950Y-10013950D02*
X17164050Y-10052050D01*
X17164050Y-10013950D02*
X17125950Y-10052050D01*
X17189450Y-8489950D02*
X17227550Y-8528050D01*
X17227550Y-8489950D02*
X17189450Y-8528050D01*
X17221200Y-7918450D02*
X17259300Y-7956550D01*
X17259300Y-7918450D02*
X17221200Y-7956550D01*
X17284700Y-6743700D02*
X17322800Y-6781800D01*
X17322800Y-6743700D02*
X17284700Y-6781800D01*
X17379950Y-6299200D02*
X17418050Y-6337300D01*
X17418050Y-6299200D02*
X17379950Y-6337300D01*
X17507700Y-5341300D02*
X17545800Y-5379400D01*
X17545800Y-5341300D02*
X17507700Y-5379400D01*
X17507700Y-6992300D02*
X17545800Y-7030400D01*
X17545800Y-6992300D02*
X17507700Y-7030400D01*
X17507700Y-8643300D02*
X17545800Y-8681400D01*
X17545800Y-8643300D02*
X17507700Y-8681400D01*
X17507700Y-10294300D02*
X17545800Y-10332400D01*
X17545800Y-10294300D02*
X17507700Y-10332400D01*
X17983200Y-6299200D02*
X18021300Y-6337300D01*
X18021300Y-6299200D02*
X17983200Y-6337300D01*
X17983200Y-9601200D02*
X18021300Y-9639300D01*
X18021300Y-9601200D02*
X17983200Y-9639300D01*
X18014950Y-7918450D02*
X18053050Y-7956550D01*
X18053050Y-7918450D02*
X18014950Y-7956550D01*
X18274300Y-5534000D02*
X18312400Y-5572100D01*
X18312400Y-5534000D02*
X18274300Y-5572100D01*
X18274300Y-7146900D02*
X18312400Y-7185000D01*
X18312400Y-7146900D02*
X18274300Y-7185000D01*
X18287000Y-10385400D02*
X18325100Y-10423500D01*
X18325100Y-10385400D02*
X18287000Y-10423500D01*
X18299700Y-8772500D02*
X18337800Y-8810600D01*
X18337800Y-8772500D02*
X18299700Y-8810600D01*
X18300700Y-9601200D02*
X18338800Y-9639300D01*
X18338800Y-9601200D02*
X18300700Y-9639300D01*
X18364200Y-8013700D02*
X18402300Y-8051800D01*
X18402300Y-8013700D02*
X18364200Y-8051800D01*
X18427700Y-6394450D02*
X18465800Y-6432550D01*
X18465800Y-6394450D02*
X18427700Y-6432550D01*
X18717150Y-5731200D02*
X18755250Y-5769300D01*
X18755250Y-5731200D02*
X18717150Y-5769300D01*
X18717150Y-7356800D02*
X18755250Y-7394900D01*
X18755250Y-7356800D02*
X18717150Y-7394900D01*
X18735450Y-10594000D02*
X18773550Y-10632100D01*
X18773550Y-10594000D02*
X18735450Y-10632100D01*
X18742550Y-8974800D02*
X18780650Y-9012900D01*
X18780650Y-8974800D02*
X18742550Y-9012900D01*
X8482800Y-5221400D02*
G75*
G02*
X8382800Y-5221400I-50000J0D01*
G01*
X8382800Y-5221400D02*
G75*
G02*
X8482800Y-5221400I50000J0D01*
G01*
X8507800Y-5171400D02*
X8357800Y-5171400D01*
X8357800Y-5271400D02*
G75*
G02*
X8357800Y-5171400I0J50000D01*
G01*
X8357800Y-5271400D02*
X8507800Y-5271400D01*
X8507800Y-5271400D02*
G75*
G03*
X8507800Y-5171400I0J50000D01*
G01*
X8482800Y-6121400D02*
G75*
G02*
X8382800Y-6121400I-50000J0D01*
G01*
X8382800Y-6121400D02*
G75*
G02*
X8482800Y-6121400I50000J0D01*
G01*
X8507800Y-6071400D02*
X8357800Y-6071400D01*
X8357800Y-6171400D02*
G75*
G02*
X8357800Y-6071400I0J50000D01*
G01*
X8357800Y-6171400D02*
X8507800Y-6171400D01*
X8507800Y-6171400D02*
G75*
G03*
X8507800Y-6071400I0J50000D01*
G01*
X8582800Y-5671400D02*
G75*
G02*
X8482800Y-5671400I-50000J0D01*
G01*
X8482800Y-5671400D02*
G75*
G02*
X8582800Y-5671400I50000J0D01*
G01*
X8482800Y-5606400D02*
X8482800Y-5736400D01*
X8582800Y-5736400D02*
G75*
G02*
X8482800Y-5736400I-50000J0D01*
G01*
X8582800Y-5736400D02*
X8582800Y-5606400D01*
X8582800Y-5606400D02*
G75*
G03*
X8482800Y-5606400I-50000J0D01*
G01*
X9182800Y-5671400D02*
G75*
G02*
X9082800Y-5671400I-50000J0D01*
G01*
X9082800Y-5671400D02*
G75*
G02*
X9182800Y-5671400I50000J0D01*
G01*
X9082800Y-5571400D02*
X9082800Y-5771400D01*
X9182800Y-5771400D02*
G75*
G02*
X9082800Y-5771400I-50000J0D01*
G01*
X9182800Y-5771400D02*
X9182800Y-5571400D01*
X9182800Y-5571400D02*
G75*
G03*
X9082800Y-5571400I-50000J0D01*
G01*
D13*
X8064500Y-7251500D02*
X8064500Y-7353500D01*
X8013500Y-7302500D02*
X8115500Y-7302500D01*
X8064500Y-9029500D02*
X8064500Y-9131500D01*
X8013500Y-9080500D02*
X8115500Y-9080500D01*
X8318500Y-7251500D02*
X8318500Y-7353500D01*
X8267500Y-7302500D02*
X8369500Y-7302500D01*
X8318500Y-9029500D02*
X8318500Y-9131500D01*
X8267500Y-9080500D02*
X8369500Y-9080500D01*
X8572500Y-7251500D02*
X8572500Y-7353500D01*
X8521500Y-7302500D02*
X8623500Y-7302500D01*
X8572500Y-9029500D02*
X8572500Y-9131500D01*
X8521500Y-9080500D02*
X8623500Y-9080500D01*
X8826500Y-7251500D02*
X8826500Y-7353500D01*
X8775500Y-7302500D02*
X8877500Y-7302500D01*
X8826500Y-9029500D02*
X8826500Y-9131500D01*
X8775500Y-9080500D02*
X8877500Y-9080500D01*
X9080500Y-7251500D02*
X9080500Y-7353500D01*
X9029500Y-7302500D02*
X9131500Y-7302500D01*
X9080500Y-9029500D02*
X9080500Y-9131500D01*
X9029500Y-9080500D02*
X9131500Y-9080500D01*
X9334500Y-7251500D02*
X9334500Y-7353500D01*
X9283500Y-7302500D02*
X9385500Y-7302500D01*
X9334500Y-9029500D02*
X9334500Y-9131500D01*
X9283500Y-9080500D02*
X9385500Y-9080500D01*
X9588500Y-7251500D02*
X9588500Y-7353500D01*
X9537500Y-7302500D02*
X9639500Y-7302500D01*
X9588500Y-9029500D02*
X9588500Y-9131500D01*
X9537500Y-9080500D02*
X9639500Y-9080500D01*
X9842500Y-7251500D02*
X9842500Y-7353500D01*
X9791500Y-7302500D02*
X9893500Y-7302500D01*
X9842500Y-9029500D02*
X9842500Y-9131500D01*
X9791500Y-9080500D02*
X9893500Y-9080500D01*
X10096500Y-7251500D02*
X10096500Y-7353500D01*
X10045500Y-7302500D02*
X10147500Y-7302500D01*
X10096500Y-9029500D02*
X10096500Y-9131500D01*
X10045500Y-9080500D02*
X10147500Y-9080500D01*
X10350500Y-7251500D02*
X10350500Y-7353500D01*
X10299500Y-7302500D02*
X10401500Y-7302500D01*
X10350500Y-9029500D02*
X10350500Y-9131500D01*
X10299500Y-9080500D02*
X10401500Y-9080500D01*
X10604500Y-7251500D02*
X10604500Y-7353500D01*
X10553500Y-7302500D02*
X10655500Y-7302500D01*
X10604500Y-9029500D02*
X10604500Y-9131500D01*
X10553500Y-9080500D02*
X10655500Y-9080500D01*
X10858500Y-7251500D02*
X10858500Y-7353500D01*
X10807500Y-7302500D02*
X10909500Y-7302500D01*
X10858500Y-9029500D02*
X10858500Y-9131500D01*
X10807500Y-9080500D02*
X10909500Y-9080500D01*
X11112500Y-7251500D02*
X11112500Y-7353500D01*
X11061500Y-7302500D02*
X11163500Y-7302500D01*
X11112500Y-9029500D02*
X11112500Y-9131500D01*
X11061500Y-9080500D02*
X11163500Y-9080500D01*
X11366500Y-7251500D02*
X11366500Y-7353500D01*
X11315500Y-7302500D02*
X11417500Y-7302500D01*
X11366500Y-9029500D02*
X11366500Y-9131500D01*
X11315500Y-9080500D02*
X11417500Y-9080500D01*
X11620500Y-7251500D02*
X11620500Y-7353500D01*
X11569500Y-7302500D02*
X11671500Y-7302500D01*
X11620500Y-9029500D02*
X11620500Y-9131500D01*
X11569500Y-9080500D02*
X11671500Y-9080500D01*
X11874500Y-7251500D02*
X11874500Y-7353500D01*
X11823500Y-7302500D02*
X11925500Y-7302500D01*
X11874500Y-9029500D02*
X11874500Y-9131500D01*
X11823500Y-9080500D02*
X11925500Y-9080500D01*
X12128500Y-7251500D02*
X12128500Y-7353500D01*
X12077500Y-7302500D02*
X12179500Y-7302500D01*
X12128500Y-9029500D02*
X12128500Y-9131500D01*
X12077500Y-9080500D02*
X12179500Y-9080500D01*
X12382500Y-7251500D02*
X12382500Y-7353500D01*
X12331500Y-7302500D02*
X12433500Y-7302500D01*
X12382500Y-9029500D02*
X12382500Y-9131500D01*
X12331500Y-9080500D02*
X12433500Y-9080500D01*
X12636500Y-7251500D02*
X12636500Y-7353500D01*
X12585500Y-7302500D02*
X12687500Y-7302500D01*
X12636500Y-9029500D02*
X12636500Y-9131500D01*
X12585500Y-9080500D02*
X12687500Y-9080500D01*
X12867500Y-7886500D02*
X12867500Y-7988500D01*
X12816500Y-7937500D02*
X12918500Y-7937500D01*
X12867500Y-8140500D02*
X12867500Y-8242500D01*
X12816500Y-8191500D02*
X12918500Y-8191500D01*
X12867500Y-8394500D02*
X12867500Y-8496500D01*
X12816500Y-8445500D02*
X12918500Y-8445500D01*
X12890500Y-7251500D02*
X12890500Y-7353500D01*
X12839500Y-7302500D02*
X12941500Y-7302500D01*
X12890500Y-9029500D02*
X12890500Y-9131500D01*
X12839500Y-9080500D02*
X12941500Y-9080500D01*
D14*
X15253491Y-5115391D02*
X15253491Y-5037609D01*
X15175709Y-5037609D01*
X15175709Y-5115391D01*
X15253491Y-5115391D01*
X15253491Y-6740991D02*
X15253491Y-6663209D01*
X15175709Y-6663209D01*
X15175709Y-6740991D01*
X15253491Y-6740991D01*
X15271791Y-9978191D02*
X15271791Y-9900409D01*
X15194009Y-9900409D01*
X15194009Y-9978191D01*
X15271791Y-9978191D01*
X15278891Y-8358991D02*
X15278891Y-8281209D01*
X15201109Y-8281209D01*
X15201109Y-8358991D01*
X15278891Y-8358991D01*
X15507491Y-5115391D02*
X15507491Y-5037609D01*
X15429709Y-5037609D01*
X15429709Y-5115391D01*
X15507491Y-5115391D01*
X15507491Y-6740991D02*
X15507491Y-6663209D01*
X15429709Y-6663209D01*
X15429709Y-6740991D01*
X15507491Y-6740991D01*
X15525791Y-9978191D02*
X15525791Y-9900409D01*
X15448009Y-9900409D01*
X15448009Y-9978191D01*
X15525791Y-9978191D01*
X15532891Y-8358991D02*
X15532891Y-8281209D01*
X15455109Y-8281209D01*
X15455109Y-8358991D01*
X15532891Y-8358991D01*
X15761491Y-5115391D02*
X15761491Y-5037609D01*
X15683709Y-5037609D01*
X15683709Y-5115391D01*
X15761491Y-5115391D01*
X15761491Y-6740991D02*
X15761491Y-6663209D01*
X15683709Y-6663209D01*
X15683709Y-6740991D01*
X15761491Y-6740991D01*
X15779791Y-9978191D02*
X15779791Y-9900409D01*
X15702009Y-9900409D01*
X15702009Y-9978191D01*
X15779791Y-9978191D01*
X15786891Y-8358991D02*
X15786891Y-8281209D01*
X15709109Y-8281209D01*
X15709109Y-8358991D01*
X15786891Y-8358991D01*
X17997441Y-5145241D02*
X17997441Y-5067459D01*
X17919659Y-5067459D01*
X17919659Y-5145241D01*
X17997441Y-5145241D01*
X17997441Y-6770841D02*
X17997441Y-6693059D01*
X17919659Y-6693059D01*
X17919659Y-6770841D01*
X17997441Y-6770841D01*
X18015741Y-10008041D02*
X18015741Y-9930259D01*
X17937959Y-9930259D01*
X17937959Y-10008041D01*
X18015741Y-10008041D01*
X18022841Y-8388841D02*
X18022841Y-8311059D01*
X17945059Y-8311059D01*
X17945059Y-8388841D01*
X18022841Y-8388841D01*
X18251441Y-5145241D02*
X18251441Y-5067459D01*
X18173659Y-5067459D01*
X18173659Y-5145241D01*
X18251441Y-5145241D01*
X18251441Y-6770841D02*
X18251441Y-6693059D01*
X18173659Y-6693059D01*
X18173659Y-6770841D01*
X18251441Y-6770841D01*
X18269741Y-10008041D02*
X18269741Y-9930259D01*
X18191959Y-9930259D01*
X18191959Y-10008041D01*
X18269741Y-10008041D01*
X18276841Y-8388841D02*
X18276841Y-8311059D01*
X18199059Y-8311059D01*
X18199059Y-8388841D01*
X18276841Y-8388841D01*
X18505441Y-5145241D02*
X18505441Y-5067459D01*
X18427659Y-5067459D01*
X18427659Y-5145241D01*
X18505441Y-5145241D01*
X18505441Y-6770841D02*
X18505441Y-6693059D01*
X18427659Y-6693059D01*
X18427659Y-6770841D01*
X18505441Y-6770841D01*
X18523741Y-10008041D02*
X18523741Y-9930259D01*
X18445959Y-9930259D01*
X18445959Y-10008041D01*
X18523741Y-10008041D01*
X18530841Y-8388841D02*
X18530841Y-8311059D01*
X18453059Y-8311059D01*
X18453059Y-8388841D01*
X18530841Y-8388841D01*
D11*
X8026827Y-13475034D02*
X8026827Y-13275034D01*
X8026827Y-13275034D02*
X8074446Y-13275034D01*
X8074446Y-13275034D02*
X8103017Y-13284558D01*
X8103017Y-13284558D02*
X8122065Y-13303605D01*
X8122065Y-13303605D02*
X8131589Y-13322653D01*
X8131589Y-13322653D02*
X8141112Y-13360748D01*
X8141112Y-13360748D02*
X8141112Y-13389319D01*
X8141112Y-13389319D02*
X8131589Y-13427415D01*
X8131589Y-13427415D02*
X8122065Y-13446462D01*
X8122065Y-13446462D02*
X8103017Y-13465510D01*
X8103017Y-13465510D02*
X8074446Y-13475034D01*
X8074446Y-13475034D02*
X8026827Y-13475034D01*
X8226827Y-13475034D02*
X8226827Y-13341700D01*
X8226827Y-13379796D02*
X8236351Y-13360748D01*
X8236351Y-13360748D02*
X8245874Y-13351224D01*
X8245874Y-13351224D02*
X8264922Y-13341700D01*
X8264922Y-13341700D02*
X8283970Y-13341700D01*
X8350636Y-13475034D02*
X8350636Y-13341700D01*
X8350636Y-13275034D02*
X8341112Y-13284558D01*
X8341112Y-13284558D02*
X8350636Y-13294081D01*
X8350636Y-13294081D02*
X8360160Y-13284558D01*
X8360160Y-13284558D02*
X8350636Y-13275034D01*
X8350636Y-13275034D02*
X8350636Y-13294081D01*
X8474446Y-13475034D02*
X8455398Y-13465510D01*
X8455398Y-13465510D02*
X8445874Y-13446462D01*
X8445874Y-13446462D02*
X8445874Y-13275034D01*
X8579208Y-13475034D02*
X8560160Y-13465510D01*
X8560160Y-13465510D02*
X8550636Y-13446462D01*
X8550636Y-13446462D02*
X8550636Y-13275034D01*
X8807779Y-13475034D02*
X8807779Y-13275034D01*
X8807779Y-13275034D02*
X8874446Y-13417891D01*
X8874446Y-13417891D02*
X8941113Y-13275034D01*
X8941113Y-13275034D02*
X8941113Y-13475034D01*
X9122065Y-13475034D02*
X9122065Y-13370272D01*
X9122065Y-13370272D02*
X9112541Y-13351224D01*
X9112541Y-13351224D02*
X9093494Y-13341700D01*
X9093494Y-13341700D02*
X9055398Y-13341700D01*
X9055398Y-13341700D02*
X9036351Y-13351224D01*
X9122065Y-13465510D02*
X9103017Y-13475034D01*
X9103017Y-13475034D02*
X9055398Y-13475034D01*
X9055398Y-13475034D02*
X9036351Y-13465510D01*
X9036351Y-13465510D02*
X9026827Y-13446462D01*
X9026827Y-13446462D02*
X9026827Y-13427415D01*
X9026827Y-13427415D02*
X9036351Y-13408367D01*
X9036351Y-13408367D02*
X9055398Y-13398843D01*
X9055398Y-13398843D02*
X9103017Y-13398843D01*
X9103017Y-13398843D02*
X9122065Y-13389319D01*
X9217303Y-13341700D02*
X9217303Y-13541700D01*
X9217303Y-13351224D02*
X9236351Y-13341700D01*
X9236351Y-13341700D02*
X9274446Y-13341700D01*
X9274446Y-13341700D02*
X9293494Y-13351224D01*
X9293494Y-13351224D02*
X9303017Y-13360748D01*
X9303017Y-13360748D02*
X9312541Y-13379796D01*
X9312541Y-13379796D02*
X9312541Y-13436938D01*
X9312541Y-13436938D02*
X9303017Y-13455986D01*
X9303017Y-13455986D02*
X9293494Y-13465510D01*
X9293494Y-13465510D02*
X9274446Y-13475034D01*
X9274446Y-13475034D02*
X9236351Y-13475034D01*
X9236351Y-13475034D02*
X9217303Y-13465510D01*
X9398255Y-13455986D02*
X9407779Y-13465510D01*
X9407779Y-13465510D02*
X9398255Y-13475034D01*
X9398255Y-13475034D02*
X9388732Y-13465510D01*
X9388732Y-13465510D02*
X9398255Y-13455986D01*
X9398255Y-13455986D02*
X9398255Y-13475034D01*
X9398255Y-13351224D02*
X9407779Y-13360748D01*
X9407779Y-13360748D02*
X9398255Y-13370272D01*
X9398255Y-13370272D02*
X9388732Y-13360748D01*
X9388732Y-13360748D02*
X9398255Y-13351224D01*
X9398255Y-13351224D02*
X9398255Y-13370272D01*
D12*
X7727950Y-13784500D02*
X7766050Y-13822600D01*
X7766050Y-13784500D02*
X7727950Y-13822600D01*
D11*
X8064922Y-13695034D02*
X8083970Y-13695034D01*
X8083970Y-13695034D02*
X8103017Y-13704558D01*
X8103017Y-13704558D02*
X8112541Y-13714081D01*
X8112541Y-13714081D02*
X8122065Y-13733129D01*
X8122065Y-13733129D02*
X8131589Y-13771224D01*
X8131589Y-13771224D02*
X8131589Y-13818843D01*
X8131589Y-13818843D02*
X8122065Y-13856938D01*
X8122065Y-13856938D02*
X8112541Y-13875986D01*
X8112541Y-13875986D02*
X8103017Y-13885510D01*
X8103017Y-13885510D02*
X8083970Y-13895034D01*
X8083970Y-13895034D02*
X8064922Y-13895034D01*
X8064922Y-13895034D02*
X8045874Y-13885510D01*
X8045874Y-13885510D02*
X8036351Y-13875986D01*
X8036351Y-13875986D02*
X8026827Y-13856938D01*
X8026827Y-13856938D02*
X8017303Y-13818843D01*
X8017303Y-13818843D02*
X8017303Y-13771224D01*
X8017303Y-13771224D02*
X8026827Y-13733129D01*
X8026827Y-13733129D02*
X8036351Y-13714081D01*
X8036351Y-13714081D02*
X8045874Y-13704558D01*
X8045874Y-13704558D02*
X8064922Y-13695034D01*
X8217303Y-13875986D02*
X8226827Y-13885510D01*
X8226827Y-13885510D02*
X8217303Y-13895034D01*
X8217303Y-13895034D02*
X8207779Y-13885510D01*
X8207779Y-13885510D02*
X8217303Y-13875986D01*
X8217303Y-13875986D02*
X8217303Y-13895034D01*
X8293493Y-13695034D02*
X8417303Y-13695034D01*
X8417303Y-13695034D02*
X8350636Y-13771224D01*
X8350636Y-13771224D02*
X8379208Y-13771224D01*
X8379208Y-13771224D02*
X8398255Y-13780748D01*
X8398255Y-13780748D02*
X8407779Y-13790272D01*
X8407779Y-13790272D02*
X8417303Y-13809319D01*
X8417303Y-13809319D02*
X8417303Y-13856938D01*
X8417303Y-13856938D02*
X8407779Y-13875986D01*
X8407779Y-13875986D02*
X8398255Y-13885510D01*
X8398255Y-13885510D02*
X8379208Y-13895034D01*
X8379208Y-13895034D02*
X8322065Y-13895034D01*
X8322065Y-13895034D02*
X8303017Y-13885510D01*
X8303017Y-13885510D02*
X8293493Y-13875986D01*
X8531589Y-13780748D02*
X8512541Y-13771224D01*
X8512541Y-13771224D02*
X8503017Y-13761700D01*
X8503017Y-13761700D02*
X8493494Y-13742653D01*
X8493494Y-13742653D02*
X8493494Y-13733129D01*
X8493494Y-13733129D02*
X8503017Y-13714081D01*
X8503017Y-13714081D02*
X8512541Y-13704558D01*
X8512541Y-13704558D02*
X8531589Y-13695034D01*
X8531589Y-13695034D02*
X8569684Y-13695034D01*
X8569684Y-13695034D02*
X8588732Y-13704558D01*
X8588732Y-13704558D02*
X8598255Y-13714081D01*
X8598255Y-13714081D02*
X8607779Y-13733129D01*
X8607779Y-13733129D02*
X8607779Y-13742653D01*
X8607779Y-13742653D02*
X8598255Y-13761700D01*
X8598255Y-13761700D02*
X8588732Y-13771224D01*
X8588732Y-13771224D02*
X8569684Y-13780748D01*
X8569684Y-13780748D02*
X8531589Y-13780748D01*
X8531589Y-13780748D02*
X8512541Y-13790272D01*
X8512541Y-13790272D02*
X8503017Y-13799796D01*
X8503017Y-13799796D02*
X8493494Y-13818843D01*
X8493494Y-13818843D02*
X8493494Y-13856938D01*
X8493494Y-13856938D02*
X8503017Y-13875986D01*
X8503017Y-13875986D02*
X8512541Y-13885510D01*
X8512541Y-13885510D02*
X8531589Y-13895034D01*
X8531589Y-13895034D02*
X8569684Y-13895034D01*
X8569684Y-13895034D02*
X8588732Y-13885510D01*
X8588732Y-13885510D02*
X8598255Y-13875986D01*
X8598255Y-13875986D02*
X8607779Y-13856938D01*
X8607779Y-13856938D02*
X8607779Y-13818843D01*
X8607779Y-13818843D02*
X8598255Y-13799796D01*
X8598255Y-13799796D02*
X8588732Y-13790272D01*
X8588732Y-13790272D02*
X8569684Y-13780748D01*
X8798255Y-13895034D02*
X8683970Y-13895034D01*
X8741113Y-13895034D02*
X8741113Y-13695034D01*
X8741113Y-13695034D02*
X8722065Y-13723605D01*
X8722065Y-13723605D02*
X8703017Y-13742653D01*
X8703017Y-13742653D02*
X8683970Y-13752177D01*
X8883970Y-13895034D02*
X8883970Y-13761700D01*
X8883970Y-13780748D02*
X8893494Y-13771224D01*
X8893494Y-13771224D02*
X8912541Y-13761700D01*
X8912541Y-13761700D02*
X8941113Y-13761700D01*
X8941113Y-13761700D02*
X8960160Y-13771224D01*
X8960160Y-13771224D02*
X8969684Y-13790272D01*
X8969684Y-13790272D02*
X8969684Y-13895034D01*
X8969684Y-13790272D02*
X8979208Y-13771224D01*
X8979208Y-13771224D02*
X8998255Y-13761700D01*
X8998255Y-13761700D02*
X9026827Y-13761700D01*
X9026827Y-13761700D02*
X9045875Y-13771224D01*
X9045875Y-13771224D02*
X9055398Y-13790272D01*
X9055398Y-13790272D02*
X9055398Y-13895034D01*
X9150636Y-13895034D02*
X9150636Y-13761700D01*
X9150636Y-13780748D02*
X9160160Y-13771224D01*
X9160160Y-13771224D02*
X9179208Y-13761700D01*
X9179208Y-13761700D02*
X9207779Y-13761700D01*
X9207779Y-13761700D02*
X9226827Y-13771224D01*
X9226827Y-13771224D02*
X9236351Y-13790272D01*
X9236351Y-13790272D02*
X9236351Y-13895034D01*
X9236351Y-13790272D02*
X9245875Y-13771224D01*
X9245875Y-13771224D02*
X9264922Y-13761700D01*
X9264922Y-13761700D02*
X9293494Y-13761700D01*
X9293494Y-13761700D02*
X9312541Y-13771224D01*
X9312541Y-13771224D02*
X9322065Y-13790272D01*
X9322065Y-13790272D02*
X9322065Y-13895034D01*
X9712541Y-13685510D02*
X9541113Y-13942653D01*
X9969684Y-13695034D02*
X9988732Y-13695034D01*
X9988732Y-13695034D02*
X10007779Y-13704558D01*
X10007779Y-13704558D02*
X10017303Y-13714081D01*
X10017303Y-13714081D02*
X10026827Y-13733129D01*
X10026827Y-13733129D02*
X10036351Y-13771224D01*
X10036351Y-13771224D02*
X10036351Y-13818843D01*
X10036351Y-13818843D02*
X10026827Y-13856938D01*
X10026827Y-13856938D02*
X10017303Y-13875986D01*
X10017303Y-13875986D02*
X10007779Y-13885510D01*
X10007779Y-13885510D02*
X9988732Y-13895034D01*
X9988732Y-13895034D02*
X9969684Y-13895034D01*
X9969684Y-13895034D02*
X9950637Y-13885510D01*
X9950637Y-13885510D02*
X9941113Y-13875986D01*
X9941113Y-13875986D02*
X9931589Y-13856938D01*
X9931589Y-13856938D02*
X9922065Y-13818843D01*
X9922065Y-13818843D02*
X9922065Y-13771224D01*
X9922065Y-13771224D02*
X9931589Y-13733129D01*
X9931589Y-13733129D02*
X9941113Y-13714081D01*
X9941113Y-13714081D02*
X9950637Y-13704558D01*
X9950637Y-13704558D02*
X9969684Y-13695034D01*
X10122065Y-13875986D02*
X10131589Y-13885510D01*
X10131589Y-13885510D02*
X10122065Y-13895034D01*
X10122065Y-13895034D02*
X10112541Y-13885510D01*
X10112541Y-13885510D02*
X10122065Y-13875986D01*
X10122065Y-13875986D02*
X10122065Y-13895034D01*
X10255398Y-13695034D02*
X10274446Y-13695034D01*
X10274446Y-13695034D02*
X10293494Y-13704558D01*
X10293494Y-13704558D02*
X10303018Y-13714081D01*
X10303018Y-13714081D02*
X10312541Y-13733129D01*
X10312541Y-13733129D02*
X10322065Y-13771224D01*
X10322065Y-13771224D02*
X10322065Y-13818843D01*
X10322065Y-13818843D02*
X10312541Y-13856938D01*
X10312541Y-13856938D02*
X10303018Y-13875986D01*
X10303018Y-13875986D02*
X10293494Y-13885510D01*
X10293494Y-13885510D02*
X10274446Y-13895034D01*
X10274446Y-13895034D02*
X10255398Y-13895034D01*
X10255398Y-13895034D02*
X10236351Y-13885510D01*
X10236351Y-13885510D02*
X10226827Y-13875986D01*
X10226827Y-13875986D02*
X10217303Y-13856938D01*
X10217303Y-13856938D02*
X10207779Y-13818843D01*
X10207779Y-13818843D02*
X10207779Y-13771224D01*
X10207779Y-13771224D02*
X10217303Y-13733129D01*
X10217303Y-13733129D02*
X10226827Y-13714081D01*
X10226827Y-13714081D02*
X10236351Y-13704558D01*
X10236351Y-13704558D02*
X10255398Y-13695034D01*
X10512541Y-13895034D02*
X10398256Y-13895034D01*
X10455398Y-13895034D02*
X10455398Y-13695034D01*
X10455398Y-13695034D02*
X10436351Y-13723605D01*
X10436351Y-13723605D02*
X10417303Y-13742653D01*
X10417303Y-13742653D02*
X10398256Y-13752177D01*
X10693494Y-13695034D02*
X10598256Y-13695034D01*
X10598256Y-13695034D02*
X10588732Y-13790272D01*
X10588732Y-13790272D02*
X10598256Y-13780748D01*
X10598256Y-13780748D02*
X10617303Y-13771224D01*
X10617303Y-13771224D02*
X10664922Y-13771224D01*
X10664922Y-13771224D02*
X10683970Y-13780748D01*
X10683970Y-13780748D02*
X10693494Y-13790272D01*
X10693494Y-13790272D02*
X10703018Y-13809319D01*
X10703018Y-13809319D02*
X10703018Y-13856938D01*
X10703018Y-13856938D02*
X10693494Y-13875986D01*
X10693494Y-13875986D02*
X10683970Y-13885510D01*
X10683970Y-13885510D02*
X10664922Y-13895034D01*
X10664922Y-13895034D02*
X10617303Y-13895034D01*
X10617303Y-13895034D02*
X10598256Y-13885510D01*
X10598256Y-13885510D02*
X10588732Y-13875986D01*
X10826827Y-13695034D02*
X10845875Y-13695034D01*
X10845875Y-13695034D02*
X10864922Y-13704558D01*
X10864922Y-13704558D02*
X10874446Y-13714081D01*
X10874446Y-13714081D02*
X10883970Y-13733129D01*
X10883970Y-13733129D02*
X10893494Y-13771224D01*
X10893494Y-13771224D02*
X10893494Y-13818843D01*
X10893494Y-13818843D02*
X10883970Y-13856938D01*
X10883970Y-13856938D02*
X10874446Y-13875986D01*
X10874446Y-13875986D02*
X10864922Y-13885510D01*
X10864922Y-13885510D02*
X10845875Y-13895034D01*
X10845875Y-13895034D02*
X10826827Y-13895034D01*
X10826827Y-13895034D02*
X10807779Y-13885510D01*
X10807779Y-13885510D02*
X10798256Y-13875986D01*
X10798256Y-13875986D02*
X10788732Y-13856938D01*
X10788732Y-13856938D02*
X10779208Y-13818843D01*
X10779208Y-13818843D02*
X10779208Y-13771224D01*
X10779208Y-13771224D02*
X10788732Y-13733129D01*
X10788732Y-13733129D02*
X10798256Y-13714081D01*
X10798256Y-13714081D02*
X10807779Y-13704558D01*
X10807779Y-13704558D02*
X10826827Y-13695034D01*
X10969684Y-13695034D02*
X10969684Y-13733129D01*
X11045875Y-13695034D02*
X11045875Y-13733129D01*
X11341113Y-13971224D02*
X11331589Y-13961700D01*
X11331589Y-13961700D02*
X11312541Y-13933129D01*
X11312541Y-13933129D02*
X11303018Y-13914081D01*
X11303018Y-13914081D02*
X11293494Y-13885510D01*
X11293494Y-13885510D02*
X11283970Y-13837891D01*
X11283970Y-13837891D02*
X11283970Y-13799796D01*
X11283970Y-13799796D02*
X11293494Y-13752177D01*
X11293494Y-13752177D02*
X11303018Y-13723605D01*
X11303018Y-13723605D02*
X11312541Y-13704558D01*
X11312541Y-13704558D02*
X11331589Y-13675986D01*
X11331589Y-13675986D02*
X11341113Y-13666462D01*
X11512541Y-13695034D02*
X11417303Y-13695034D01*
X11417303Y-13695034D02*
X11407779Y-13790272D01*
X11407779Y-13790272D02*
X11417303Y-13780748D01*
X11417303Y-13780748D02*
X11436351Y-13771224D01*
X11436351Y-13771224D02*
X11483970Y-13771224D01*
X11483970Y-13771224D02*
X11503018Y-13780748D01*
X11503018Y-13780748D02*
X11512541Y-13790272D01*
X11512541Y-13790272D02*
X11522065Y-13809319D01*
X11522065Y-13809319D02*
X11522065Y-13856938D01*
X11522065Y-13856938D02*
X11512541Y-13875986D01*
X11512541Y-13875986D02*
X11503018Y-13885510D01*
X11503018Y-13885510D02*
X11483970Y-13895034D01*
X11483970Y-13895034D02*
X11436351Y-13895034D01*
X11436351Y-13895034D02*
X11417303Y-13885510D01*
X11417303Y-13885510D02*
X11407779Y-13875986D01*
X11693494Y-13761700D02*
X11693494Y-13895034D01*
X11645875Y-13685510D02*
X11598256Y-13828367D01*
X11598256Y-13828367D02*
X11722065Y-13828367D01*
X11950637Y-13895034D02*
X11950637Y-13695034D01*
X12036351Y-13895034D02*
X12036351Y-13790272D01*
X12036351Y-13790272D02*
X12026827Y-13771224D01*
X12026827Y-13771224D02*
X12007780Y-13761700D01*
X12007780Y-13761700D02*
X11979208Y-13761700D01*
X11979208Y-13761700D02*
X11960160Y-13771224D01*
X11960160Y-13771224D02*
X11950637Y-13780748D01*
X12160160Y-13895034D02*
X12141113Y-13885510D01*
X12141113Y-13885510D02*
X12131589Y-13875986D01*
X12131589Y-13875986D02*
X12122065Y-13856938D01*
X12122065Y-13856938D02*
X12122065Y-13799796D01*
X12122065Y-13799796D02*
X12131589Y-13780748D01*
X12131589Y-13780748D02*
X12141113Y-13771224D01*
X12141113Y-13771224D02*
X12160160Y-13761700D01*
X12160160Y-13761700D02*
X12188732Y-13761700D01*
X12188732Y-13761700D02*
X12207780Y-13771224D01*
X12207780Y-13771224D02*
X12217303Y-13780748D01*
X12217303Y-13780748D02*
X12226827Y-13799796D01*
X12226827Y-13799796D02*
X12226827Y-13856938D01*
X12226827Y-13856938D02*
X12217303Y-13875986D01*
X12217303Y-13875986D02*
X12207780Y-13885510D01*
X12207780Y-13885510D02*
X12188732Y-13895034D01*
X12188732Y-13895034D02*
X12160160Y-13895034D01*
X12341113Y-13895034D02*
X12322065Y-13885510D01*
X12322065Y-13885510D02*
X12312541Y-13866462D01*
X12312541Y-13866462D02*
X12312541Y-13695034D01*
X12493494Y-13885510D02*
X12474446Y-13895034D01*
X12474446Y-13895034D02*
X12436351Y-13895034D01*
X12436351Y-13895034D02*
X12417303Y-13885510D01*
X12417303Y-13885510D02*
X12407780Y-13866462D01*
X12407780Y-13866462D02*
X12407780Y-13790272D01*
X12407780Y-13790272D02*
X12417303Y-13771224D01*
X12417303Y-13771224D02*
X12436351Y-13761700D01*
X12436351Y-13761700D02*
X12474446Y-13761700D01*
X12474446Y-13761700D02*
X12493494Y-13771224D01*
X12493494Y-13771224D02*
X12503018Y-13790272D01*
X12503018Y-13790272D02*
X12503018Y-13809319D01*
X12503018Y-13809319D02*
X12407780Y-13828367D01*
X12579208Y-13885510D02*
X12598256Y-13895034D01*
X12598256Y-13895034D02*
X12636351Y-13895034D01*
X12636351Y-13895034D02*
X12655399Y-13885510D01*
X12655399Y-13885510D02*
X12664922Y-13866462D01*
X12664922Y-13866462D02*
X12664922Y-13856938D01*
X12664922Y-13856938D02*
X12655399Y-13837891D01*
X12655399Y-13837891D02*
X12636351Y-13828367D01*
X12636351Y-13828367D02*
X12607780Y-13828367D01*
X12607780Y-13828367D02*
X12588732Y-13818843D01*
X12588732Y-13818843D02*
X12579208Y-13799796D01*
X12579208Y-13799796D02*
X12579208Y-13790272D01*
X12579208Y-13790272D02*
X12588732Y-13771224D01*
X12588732Y-13771224D02*
X12607780Y-13761700D01*
X12607780Y-13761700D02*
X12636351Y-13761700D01*
X12636351Y-13761700D02*
X12655399Y-13771224D01*
X12731589Y-13971224D02*
X12741113Y-13961700D01*
X12741113Y-13961700D02*
X12760161Y-13933129D01*
X12760161Y-13933129D02*
X12769684Y-13914081D01*
X12769684Y-13914081D02*
X12779208Y-13885510D01*
X12779208Y-13885510D02*
X12788732Y-13837891D01*
X12788732Y-13837891D02*
X12788732Y-13799796D01*
X12788732Y-13799796D02*
X12779208Y-13752177D01*
X12779208Y-13752177D02*
X12769684Y-13723605D01*
X12769684Y-13723605D02*
X12760161Y-13704558D01*
X12760161Y-13704558D02*
X12741113Y-13675986D01*
X12741113Y-13675986D02*
X12731589Y-13666462D01*
D12*
X7766050Y-14067550D02*
G75*
G02*
X7666050Y-14067550I-50000J0D01*
G01*
X7666050Y-14067550D02*
G75*
G02*
X7766050Y-14067550I50000J0D01*
G01*
D11*
X8131589Y-14159034D02*
X8017303Y-14159034D01*
X8074446Y-14159034D02*
X8074446Y-13959034D01*
X8074446Y-13959034D02*
X8055398Y-13987605D01*
X8055398Y-13987605D02*
X8036351Y-14006653D01*
X8036351Y-14006653D02*
X8017303Y-14016177D01*
X8217303Y-14139986D02*
X8226827Y-14149510D01*
X8226827Y-14149510D02*
X8217303Y-14159034D01*
X8217303Y-14159034D02*
X8207779Y-14149510D01*
X8207779Y-14149510D02*
X8217303Y-14139986D01*
X8217303Y-14139986D02*
X8217303Y-14159034D01*
X8350636Y-13959034D02*
X8369684Y-13959034D01*
X8369684Y-13959034D02*
X8388732Y-13968558D01*
X8388732Y-13968558D02*
X8398255Y-13978081D01*
X8398255Y-13978081D02*
X8407779Y-13997129D01*
X8407779Y-13997129D02*
X8417303Y-14035224D01*
X8417303Y-14035224D02*
X8417303Y-14082843D01*
X8417303Y-14082843D02*
X8407779Y-14120938D01*
X8407779Y-14120938D02*
X8398255Y-14139986D01*
X8398255Y-14139986D02*
X8388732Y-14149510D01*
X8388732Y-14149510D02*
X8369684Y-14159034D01*
X8369684Y-14159034D02*
X8350636Y-14159034D01*
X8350636Y-14159034D02*
X8331589Y-14149510D01*
X8331589Y-14149510D02*
X8322065Y-14139986D01*
X8322065Y-14139986D02*
X8312541Y-14120938D01*
X8312541Y-14120938D02*
X8303017Y-14082843D01*
X8303017Y-14082843D02*
X8303017Y-14035224D01*
X8303017Y-14035224D02*
X8312541Y-13997129D01*
X8312541Y-13997129D02*
X8322065Y-13978081D01*
X8322065Y-13978081D02*
X8331589Y-13968558D01*
X8331589Y-13968558D02*
X8350636Y-13959034D01*
X8541113Y-13959034D02*
X8560160Y-13959034D01*
X8560160Y-13959034D02*
X8579208Y-13968558D01*
X8579208Y-13968558D02*
X8588732Y-13978081D01*
X8588732Y-13978081D02*
X8598255Y-13997129D01*
X8598255Y-13997129D02*
X8607779Y-14035224D01*
X8607779Y-14035224D02*
X8607779Y-14082843D01*
X8607779Y-14082843D02*
X8598255Y-14120938D01*
X8598255Y-14120938D02*
X8588732Y-14139986D01*
X8588732Y-14139986D02*
X8579208Y-14149510D01*
X8579208Y-14149510D02*
X8560160Y-14159034D01*
X8560160Y-14159034D02*
X8541113Y-14159034D01*
X8541113Y-14159034D02*
X8522065Y-14149510D01*
X8522065Y-14149510D02*
X8512541Y-14139986D01*
X8512541Y-14139986D02*
X8503017Y-14120938D01*
X8503017Y-14120938D02*
X8493494Y-14082843D01*
X8493494Y-14082843D02*
X8493494Y-14035224D01*
X8493494Y-14035224D02*
X8503017Y-13997129D01*
X8503017Y-13997129D02*
X8512541Y-13978081D01*
X8512541Y-13978081D02*
X8522065Y-13968558D01*
X8522065Y-13968558D02*
X8541113Y-13959034D01*
X8731589Y-13959034D02*
X8750636Y-13959034D01*
X8750636Y-13959034D02*
X8769684Y-13968558D01*
X8769684Y-13968558D02*
X8779208Y-13978081D01*
X8779208Y-13978081D02*
X8788732Y-13997129D01*
X8788732Y-13997129D02*
X8798255Y-14035224D01*
X8798255Y-14035224D02*
X8798255Y-14082843D01*
X8798255Y-14082843D02*
X8788732Y-14120938D01*
X8788732Y-14120938D02*
X8779208Y-14139986D01*
X8779208Y-14139986D02*
X8769684Y-14149510D01*
X8769684Y-14149510D02*
X8750636Y-14159034D01*
X8750636Y-14159034D02*
X8731589Y-14159034D01*
X8731589Y-14159034D02*
X8712541Y-14149510D01*
X8712541Y-14149510D02*
X8703017Y-14139986D01*
X8703017Y-14139986D02*
X8693494Y-14120938D01*
X8693494Y-14120938D02*
X8683970Y-14082843D01*
X8683970Y-14082843D02*
X8683970Y-14035224D01*
X8683970Y-14035224D02*
X8693494Y-13997129D01*
X8693494Y-13997129D02*
X8703017Y-13978081D01*
X8703017Y-13978081D02*
X8712541Y-13968558D01*
X8712541Y-13968558D02*
X8731589Y-13959034D01*
X8883970Y-14159034D02*
X8883970Y-14025700D01*
X8883970Y-14044748D02*
X8893494Y-14035224D01*
X8893494Y-14035224D02*
X8912541Y-14025700D01*
X8912541Y-14025700D02*
X8941113Y-14025700D01*
X8941113Y-14025700D02*
X8960160Y-14035224D01*
X8960160Y-14035224D02*
X8969684Y-14054272D01*
X8969684Y-14054272D02*
X8969684Y-14159034D01*
X8969684Y-14054272D02*
X8979208Y-14035224D01*
X8979208Y-14035224D02*
X8998255Y-14025700D01*
X8998255Y-14025700D02*
X9026827Y-14025700D01*
X9026827Y-14025700D02*
X9045875Y-14035224D01*
X9045875Y-14035224D02*
X9055398Y-14054272D01*
X9055398Y-14054272D02*
X9055398Y-14159034D01*
X9150636Y-14159034D02*
X9150636Y-14025700D01*
X9150636Y-14044748D02*
X9160160Y-14035224D01*
X9160160Y-14035224D02*
X9179208Y-14025700D01*
X9179208Y-14025700D02*
X9207779Y-14025700D01*
X9207779Y-14025700D02*
X9226827Y-14035224D01*
X9226827Y-14035224D02*
X9236351Y-14054272D01*
X9236351Y-14054272D02*
X9236351Y-14159034D01*
X9236351Y-14054272D02*
X9245875Y-14035224D01*
X9245875Y-14035224D02*
X9264922Y-14025700D01*
X9264922Y-14025700D02*
X9293494Y-14025700D01*
X9293494Y-14025700D02*
X9312541Y-14035224D01*
X9312541Y-14035224D02*
X9322065Y-14054272D01*
X9322065Y-14054272D02*
X9322065Y-14159034D01*
X9712541Y-13949510D02*
X9541113Y-14206653D01*
X9969684Y-13959034D02*
X9988732Y-13959034D01*
X9988732Y-13959034D02*
X10007779Y-13968558D01*
X10007779Y-13968558D02*
X10017303Y-13978081D01*
X10017303Y-13978081D02*
X10026827Y-13997129D01*
X10026827Y-13997129D02*
X10036351Y-14035224D01*
X10036351Y-14035224D02*
X10036351Y-14082843D01*
X10036351Y-14082843D02*
X10026827Y-14120938D01*
X10026827Y-14120938D02*
X10017303Y-14139986D01*
X10017303Y-14139986D02*
X10007779Y-14149510D01*
X10007779Y-14149510D02*
X9988732Y-14159034D01*
X9988732Y-14159034D02*
X9969684Y-14159034D01*
X9969684Y-14159034D02*
X9950637Y-14149510D01*
X9950637Y-14149510D02*
X9941113Y-14139986D01*
X9941113Y-14139986D02*
X9931589Y-14120938D01*
X9931589Y-14120938D02*
X9922065Y-14082843D01*
X9922065Y-14082843D02*
X9922065Y-14035224D01*
X9922065Y-14035224D02*
X9931589Y-13997129D01*
X9931589Y-13997129D02*
X9941113Y-13978081D01*
X9941113Y-13978081D02*
X9950637Y-13968558D01*
X9950637Y-13968558D02*
X9969684Y-13959034D01*
X10122065Y-14139986D02*
X10131589Y-14149510D01*
X10131589Y-14149510D02*
X10122065Y-14159034D01*
X10122065Y-14159034D02*
X10112541Y-14149510D01*
X10112541Y-14149510D02*
X10122065Y-14139986D01*
X10122065Y-14139986D02*
X10122065Y-14159034D01*
X10255398Y-13959034D02*
X10274446Y-13959034D01*
X10274446Y-13959034D02*
X10293494Y-13968558D01*
X10293494Y-13968558D02*
X10303018Y-13978081D01*
X10303018Y-13978081D02*
X10312541Y-13997129D01*
X10312541Y-13997129D02*
X10322065Y-14035224D01*
X10322065Y-14035224D02*
X10322065Y-14082843D01*
X10322065Y-14082843D02*
X10312541Y-14120938D01*
X10312541Y-14120938D02*
X10303018Y-14139986D01*
X10303018Y-14139986D02*
X10293494Y-14149510D01*
X10293494Y-14149510D02*
X10274446Y-14159034D01*
X10274446Y-14159034D02*
X10255398Y-14159034D01*
X10255398Y-14159034D02*
X10236351Y-14149510D01*
X10236351Y-14149510D02*
X10226827Y-14139986D01*
X10226827Y-14139986D02*
X10217303Y-14120938D01*
X10217303Y-14120938D02*
X10207779Y-14082843D01*
X10207779Y-14082843D02*
X10207779Y-14035224D01*
X10207779Y-14035224D02*
X10217303Y-13997129D01*
X10217303Y-13997129D02*
X10226827Y-13978081D01*
X10226827Y-13978081D02*
X10236351Y-13968558D01*
X10236351Y-13968558D02*
X10255398Y-13959034D01*
X10388732Y-13959034D02*
X10512541Y-13959034D01*
X10512541Y-13959034D02*
X10445875Y-14035224D01*
X10445875Y-14035224D02*
X10474446Y-14035224D01*
X10474446Y-14035224D02*
X10493494Y-14044748D01*
X10493494Y-14044748D02*
X10503018Y-14054272D01*
X10503018Y-14054272D02*
X10512541Y-14073319D01*
X10512541Y-14073319D02*
X10512541Y-14120938D01*
X10512541Y-14120938D02*
X10503018Y-14139986D01*
X10503018Y-14139986D02*
X10493494Y-14149510D01*
X10493494Y-14149510D02*
X10474446Y-14159034D01*
X10474446Y-14159034D02*
X10417303Y-14159034D01*
X10417303Y-14159034D02*
X10398256Y-14149510D01*
X10398256Y-14149510D02*
X10388732Y-14139986D01*
X10607779Y-14159034D02*
X10645875Y-14159034D01*
X10645875Y-14159034D02*
X10664922Y-14149510D01*
X10664922Y-14149510D02*
X10674446Y-14139986D01*
X10674446Y-14139986D02*
X10693494Y-14111415D01*
X10693494Y-14111415D02*
X10703018Y-14073319D01*
X10703018Y-14073319D02*
X10703018Y-13997129D01*
X10703018Y-13997129D02*
X10693494Y-13978081D01*
X10693494Y-13978081D02*
X10683970Y-13968558D01*
X10683970Y-13968558D02*
X10664922Y-13959034D01*
X10664922Y-13959034D02*
X10626827Y-13959034D01*
X10626827Y-13959034D02*
X10607779Y-13968558D01*
X10607779Y-13968558D02*
X10598256Y-13978081D01*
X10598256Y-13978081D02*
X10588732Y-13997129D01*
X10588732Y-13997129D02*
X10588732Y-14044748D01*
X10588732Y-14044748D02*
X10598256Y-14063796D01*
X10598256Y-14063796D02*
X10607779Y-14073319D01*
X10607779Y-14073319D02*
X10626827Y-14082843D01*
X10626827Y-14082843D02*
X10664922Y-14082843D01*
X10664922Y-14082843D02*
X10683970Y-14073319D01*
X10683970Y-14073319D02*
X10693494Y-14063796D01*
X10693494Y-14063796D02*
X10703018Y-14044748D01*
X10874446Y-14025700D02*
X10874446Y-14159034D01*
X10826827Y-13949510D02*
X10779208Y-14092367D01*
X10779208Y-14092367D02*
X10903018Y-14092367D01*
X10969684Y-13959034D02*
X10969684Y-13997129D01*
X11045875Y-13959034D02*
X11045875Y-13997129D01*
X11341113Y-14235224D02*
X11331589Y-14225700D01*
X11331589Y-14225700D02*
X11312541Y-14197129D01*
X11312541Y-14197129D02*
X11303018Y-14178081D01*
X11303018Y-14178081D02*
X11293494Y-14149510D01*
X11293494Y-14149510D02*
X11283970Y-14101891D01*
X11283970Y-14101891D02*
X11283970Y-14063796D01*
X11283970Y-14063796D02*
X11293494Y-14016177D01*
X11293494Y-14016177D02*
X11303018Y-13987605D01*
X11303018Y-13987605D02*
X11312541Y-13968558D01*
X11312541Y-13968558D02*
X11331589Y-13939986D01*
X11331589Y-13939986D02*
X11341113Y-13930462D01*
X11455398Y-13959034D02*
X11474446Y-13959034D01*
X11474446Y-13959034D02*
X11493494Y-13968558D01*
X11493494Y-13968558D02*
X11503018Y-13978081D01*
X11503018Y-13978081D02*
X11512541Y-13997129D01*
X11512541Y-13997129D02*
X11522065Y-14035224D01*
X11522065Y-14035224D02*
X11522065Y-14082843D01*
X11522065Y-14082843D02*
X11512541Y-14120938D01*
X11512541Y-14120938D02*
X11503018Y-14139986D01*
X11503018Y-14139986D02*
X11493494Y-14149510D01*
X11493494Y-14149510D02*
X11474446Y-14159034D01*
X11474446Y-14159034D02*
X11455398Y-14159034D01*
X11455398Y-14159034D02*
X11436351Y-14149510D01*
X11436351Y-14149510D02*
X11426827Y-14139986D01*
X11426827Y-14139986D02*
X11417303Y-14120938D01*
X11417303Y-14120938D02*
X11407779Y-14082843D01*
X11407779Y-14082843D02*
X11407779Y-14035224D01*
X11407779Y-14035224D02*
X11417303Y-13997129D01*
X11417303Y-13997129D02*
X11426827Y-13978081D01*
X11426827Y-13978081D02*
X11436351Y-13968558D01*
X11436351Y-13968558D02*
X11455398Y-13959034D01*
X11760160Y-14159034D02*
X11760160Y-13959034D01*
X11845875Y-14159034D02*
X11845875Y-14054272D01*
X11845875Y-14054272D02*
X11836351Y-14035224D01*
X11836351Y-14035224D02*
X11817303Y-14025700D01*
X11817303Y-14025700D02*
X11788732Y-14025700D01*
X11788732Y-14025700D02*
X11769684Y-14035224D01*
X11769684Y-14035224D02*
X11760160Y-14044748D01*
X11969684Y-14159034D02*
X11950637Y-14149510D01*
X11950637Y-14149510D02*
X11941113Y-14139986D01*
X11941113Y-14139986D02*
X11931589Y-14120938D01*
X11931589Y-14120938D02*
X11931589Y-14063796D01*
X11931589Y-14063796D02*
X11941113Y-14044748D01*
X11941113Y-14044748D02*
X11950637Y-14035224D01*
X11950637Y-14035224D02*
X11969684Y-14025700D01*
X11969684Y-14025700D02*
X11998256Y-14025700D01*
X11998256Y-14025700D02*
X12017303Y-14035224D01*
X12017303Y-14035224D02*
X12026827Y-14044748D01*
X12026827Y-14044748D02*
X12036351Y-14063796D01*
X12036351Y-14063796D02*
X12036351Y-14120938D01*
X12036351Y-14120938D02*
X12026827Y-14139986D01*
X12026827Y-14139986D02*
X12017303Y-14149510D01*
X12017303Y-14149510D02*
X11998256Y-14159034D01*
X11998256Y-14159034D02*
X11969684Y-14159034D01*
X12150637Y-14159034D02*
X12131589Y-14149510D01*
X12131589Y-14149510D02*
X12122065Y-14130462D01*
X12122065Y-14130462D02*
X12122065Y-13959034D01*
X12303018Y-14149510D02*
X12283970Y-14159034D01*
X12283970Y-14159034D02*
X12245875Y-14159034D01*
X12245875Y-14159034D02*
X12226827Y-14149510D01*
X12226827Y-14149510D02*
X12217303Y-14130462D01*
X12217303Y-14130462D02*
X12217303Y-14054272D01*
X12217303Y-14054272D02*
X12226827Y-14035224D01*
X12226827Y-14035224D02*
X12245875Y-14025700D01*
X12245875Y-14025700D02*
X12283970Y-14025700D01*
X12283970Y-14025700D02*
X12303018Y-14035224D01*
X12303018Y-14035224D02*
X12312541Y-14054272D01*
X12312541Y-14054272D02*
X12312541Y-14073319D01*
X12312541Y-14073319D02*
X12217303Y-14092367D01*
X12388732Y-14149510D02*
X12407780Y-14159034D01*
X12407780Y-14159034D02*
X12445875Y-14159034D01*
X12445875Y-14159034D02*
X12464922Y-14149510D01*
X12464922Y-14149510D02*
X12474446Y-14130462D01*
X12474446Y-14130462D02*
X12474446Y-14120938D01*
X12474446Y-14120938D02*
X12464922Y-14101891D01*
X12464922Y-14101891D02*
X12445875Y-14092367D01*
X12445875Y-14092367D02*
X12417303Y-14092367D01*
X12417303Y-14092367D02*
X12398256Y-14082843D01*
X12398256Y-14082843D02*
X12388732Y-14063796D01*
X12388732Y-14063796D02*
X12388732Y-14054272D01*
X12388732Y-14054272D02*
X12398256Y-14035224D01*
X12398256Y-14035224D02*
X12417303Y-14025700D01*
X12417303Y-14025700D02*
X12445875Y-14025700D01*
X12445875Y-14025700D02*
X12464922Y-14035224D01*
X12712542Y-14082843D02*
X12864923Y-14082843D01*
X12788732Y-14159034D02*
X12788732Y-14006653D01*
X13198256Y-14025700D02*
X13198256Y-14159034D01*
X13150637Y-13949510D02*
X13103018Y-14092367D01*
X13103018Y-14092367D02*
X13226827Y-14092367D01*
X13445875Y-14149510D02*
X13464923Y-14159034D01*
X13464923Y-14159034D02*
X13503018Y-14159034D01*
X13503018Y-14159034D02*
X13522065Y-14149510D01*
X13522065Y-14149510D02*
X13531589Y-14130462D01*
X13531589Y-14130462D02*
X13531589Y-14120938D01*
X13531589Y-14120938D02*
X13522065Y-14101891D01*
X13522065Y-14101891D02*
X13503018Y-14092367D01*
X13503018Y-14092367D02*
X13474446Y-14092367D01*
X13474446Y-14092367D02*
X13455399Y-14082843D01*
X13455399Y-14082843D02*
X13445875Y-14063796D01*
X13445875Y-14063796D02*
X13445875Y-14054272D01*
X13445875Y-14054272D02*
X13455399Y-14035224D01*
X13455399Y-14035224D02*
X13474446Y-14025700D01*
X13474446Y-14025700D02*
X13503018Y-14025700D01*
X13503018Y-14025700D02*
X13522065Y-14035224D01*
X13645875Y-14159034D02*
X13626827Y-14149510D01*
X13626827Y-14149510D02*
X13617304Y-14130462D01*
X13617304Y-14130462D02*
X13617304Y-13959034D01*
X13750637Y-14159034D02*
X13731589Y-14149510D01*
X13731589Y-14149510D02*
X13722065Y-14139986D01*
X13722065Y-14139986D02*
X13712542Y-14120938D01*
X13712542Y-14120938D02*
X13712542Y-14063796D01*
X13712542Y-14063796D02*
X13722065Y-14044748D01*
X13722065Y-14044748D02*
X13731589Y-14035224D01*
X13731589Y-14035224D02*
X13750637Y-14025700D01*
X13750637Y-14025700D02*
X13779208Y-14025700D01*
X13779208Y-14025700D02*
X13798256Y-14035224D01*
X13798256Y-14035224D02*
X13807780Y-14044748D01*
X13807780Y-14044748D02*
X13817304Y-14063796D01*
X13817304Y-14063796D02*
X13817304Y-14120938D01*
X13817304Y-14120938D02*
X13807780Y-14139986D01*
X13807780Y-14139986D02*
X13798256Y-14149510D01*
X13798256Y-14149510D02*
X13779208Y-14159034D01*
X13779208Y-14159034D02*
X13750637Y-14159034D01*
X13874446Y-14025700D02*
X13950637Y-14025700D01*
X13903018Y-13959034D02*
X13903018Y-14130462D01*
X13903018Y-14130462D02*
X13912542Y-14149510D01*
X13912542Y-14149510D02*
X13931589Y-14159034D01*
X13931589Y-14159034D02*
X13950637Y-14159034D01*
X14007780Y-14149510D02*
X14026827Y-14159034D01*
X14026827Y-14159034D02*
X14064923Y-14159034D01*
X14064923Y-14159034D02*
X14083970Y-14149510D01*
X14083970Y-14149510D02*
X14093494Y-14130462D01*
X14093494Y-14130462D02*
X14093494Y-14120938D01*
X14093494Y-14120938D02*
X14083970Y-14101891D01*
X14083970Y-14101891D02*
X14064923Y-14092367D01*
X14064923Y-14092367D02*
X14036351Y-14092367D01*
X14036351Y-14092367D02*
X14017304Y-14082843D01*
X14017304Y-14082843D02*
X14007780Y-14063796D01*
X14007780Y-14063796D02*
X14007780Y-14054272D01*
X14007780Y-14054272D02*
X14017304Y-14035224D01*
X14017304Y-14035224D02*
X14036351Y-14025700D01*
X14036351Y-14025700D02*
X14064923Y-14025700D01*
X14064923Y-14025700D02*
X14083970Y-14035224D01*
X14160161Y-14235224D02*
X14169685Y-14225700D01*
X14169685Y-14225700D02*
X14188732Y-14197129D01*
X14188732Y-14197129D02*
X14198256Y-14178081D01*
X14198256Y-14178081D02*
X14207780Y-14149510D01*
X14207780Y-14149510D02*
X14217304Y-14101891D01*
X14217304Y-14101891D02*
X14217304Y-14063796D01*
X14217304Y-14063796D02*
X14207780Y-14016177D01*
X14207780Y-14016177D02*
X14198256Y-13987605D01*
X14198256Y-13987605D02*
X14188732Y-13968558D01*
X14188732Y-13968558D02*
X14169685Y-13939986D01*
X14169685Y-13939986D02*
X14160161Y-13930462D01*
D13*
X7715050Y-14280550D02*
X7715050Y-14382550D01*
X7664050Y-14331550D02*
X7766050Y-14331550D01*
D11*
X8131589Y-14423034D02*
X8017303Y-14423034D01*
X8074446Y-14423034D02*
X8074446Y-14223034D01*
X8074446Y-14223034D02*
X8055398Y-14251605D01*
X8055398Y-14251605D02*
X8036351Y-14270653D01*
X8036351Y-14270653D02*
X8017303Y-14280177D01*
X8217303Y-14403986D02*
X8226827Y-14413510D01*
X8226827Y-14413510D02*
X8217303Y-14423034D01*
X8217303Y-14423034D02*
X8207779Y-14413510D01*
X8207779Y-14413510D02*
X8217303Y-14403986D01*
X8217303Y-14403986D02*
X8217303Y-14423034D01*
X8350636Y-14223034D02*
X8369684Y-14223034D01*
X8369684Y-14223034D02*
X8388732Y-14232558D01*
X8388732Y-14232558D02*
X8398255Y-14242081D01*
X8398255Y-14242081D02*
X8407779Y-14261129D01*
X8407779Y-14261129D02*
X8417303Y-14299224D01*
X8417303Y-14299224D02*
X8417303Y-14346843D01*
X8417303Y-14346843D02*
X8407779Y-14384938D01*
X8407779Y-14384938D02*
X8398255Y-14403986D01*
X8398255Y-14403986D02*
X8388732Y-14413510D01*
X8388732Y-14413510D02*
X8369684Y-14423034D01*
X8369684Y-14423034D02*
X8350636Y-14423034D01*
X8350636Y-14423034D02*
X8331589Y-14413510D01*
X8331589Y-14413510D02*
X8322065Y-14403986D01*
X8322065Y-14403986D02*
X8312541Y-14384938D01*
X8312541Y-14384938D02*
X8303017Y-14346843D01*
X8303017Y-14346843D02*
X8303017Y-14299224D01*
X8303017Y-14299224D02*
X8312541Y-14261129D01*
X8312541Y-14261129D02*
X8322065Y-14242081D01*
X8322065Y-14242081D02*
X8331589Y-14232558D01*
X8331589Y-14232558D02*
X8350636Y-14223034D01*
X8493494Y-14242081D02*
X8503017Y-14232558D01*
X8503017Y-14232558D02*
X8522065Y-14223034D01*
X8522065Y-14223034D02*
X8569684Y-14223034D01*
X8569684Y-14223034D02*
X8588732Y-14232558D01*
X8588732Y-14232558D02*
X8598255Y-14242081D01*
X8598255Y-14242081D02*
X8607779Y-14261129D01*
X8607779Y-14261129D02*
X8607779Y-14280177D01*
X8607779Y-14280177D02*
X8598255Y-14308748D01*
X8598255Y-14308748D02*
X8483970Y-14423034D01*
X8483970Y-14423034D02*
X8607779Y-14423034D01*
X8731589Y-14223034D02*
X8750636Y-14223034D01*
X8750636Y-14223034D02*
X8769684Y-14232558D01*
X8769684Y-14232558D02*
X8779208Y-14242081D01*
X8779208Y-14242081D02*
X8788732Y-14261129D01*
X8788732Y-14261129D02*
X8798255Y-14299224D01*
X8798255Y-14299224D02*
X8798255Y-14346843D01*
X8798255Y-14346843D02*
X8788732Y-14384938D01*
X8788732Y-14384938D02*
X8779208Y-14403986D01*
X8779208Y-14403986D02*
X8769684Y-14413510D01*
X8769684Y-14413510D02*
X8750636Y-14423034D01*
X8750636Y-14423034D02*
X8731589Y-14423034D01*
X8731589Y-14423034D02*
X8712541Y-14413510D01*
X8712541Y-14413510D02*
X8703017Y-14403986D01*
X8703017Y-14403986D02*
X8693494Y-14384938D01*
X8693494Y-14384938D02*
X8683970Y-14346843D01*
X8683970Y-14346843D02*
X8683970Y-14299224D01*
X8683970Y-14299224D02*
X8693494Y-14261129D01*
X8693494Y-14261129D02*
X8703017Y-14242081D01*
X8703017Y-14242081D02*
X8712541Y-14232558D01*
X8712541Y-14232558D02*
X8731589Y-14223034D01*
X8883970Y-14423034D02*
X8883970Y-14289700D01*
X8883970Y-14308748D02*
X8893494Y-14299224D01*
X8893494Y-14299224D02*
X8912541Y-14289700D01*
X8912541Y-14289700D02*
X8941113Y-14289700D01*
X8941113Y-14289700D02*
X8960160Y-14299224D01*
X8960160Y-14299224D02*
X8969684Y-14318272D01*
X8969684Y-14318272D02*
X8969684Y-14423034D01*
X8969684Y-14318272D02*
X8979208Y-14299224D01*
X8979208Y-14299224D02*
X8998255Y-14289700D01*
X8998255Y-14289700D02*
X9026827Y-14289700D01*
X9026827Y-14289700D02*
X9045875Y-14299224D01*
X9045875Y-14299224D02*
X9055398Y-14318272D01*
X9055398Y-14318272D02*
X9055398Y-14423034D01*
X9150636Y-14423034D02*
X9150636Y-14289700D01*
X9150636Y-14308748D02*
X9160160Y-14299224D01*
X9160160Y-14299224D02*
X9179208Y-14289700D01*
X9179208Y-14289700D02*
X9207779Y-14289700D01*
X9207779Y-14289700D02*
X9226827Y-14299224D01*
X9226827Y-14299224D02*
X9236351Y-14318272D01*
X9236351Y-14318272D02*
X9236351Y-14423034D01*
X9236351Y-14318272D02*
X9245875Y-14299224D01*
X9245875Y-14299224D02*
X9264922Y-14289700D01*
X9264922Y-14289700D02*
X9293494Y-14289700D01*
X9293494Y-14289700D02*
X9312541Y-14299224D01*
X9312541Y-14299224D02*
X9322065Y-14318272D01*
X9322065Y-14318272D02*
X9322065Y-14423034D01*
X9712541Y-14213510D02*
X9541113Y-14470653D01*
X9969684Y-14223034D02*
X9988732Y-14223034D01*
X9988732Y-14223034D02*
X10007779Y-14232558D01*
X10007779Y-14232558D02*
X10017303Y-14242081D01*
X10017303Y-14242081D02*
X10026827Y-14261129D01*
X10026827Y-14261129D02*
X10036351Y-14299224D01*
X10036351Y-14299224D02*
X10036351Y-14346843D01*
X10036351Y-14346843D02*
X10026827Y-14384938D01*
X10026827Y-14384938D02*
X10017303Y-14403986D01*
X10017303Y-14403986D02*
X10007779Y-14413510D01*
X10007779Y-14413510D02*
X9988732Y-14423034D01*
X9988732Y-14423034D02*
X9969684Y-14423034D01*
X9969684Y-14423034D02*
X9950637Y-14413510D01*
X9950637Y-14413510D02*
X9941113Y-14403986D01*
X9941113Y-14403986D02*
X9931589Y-14384938D01*
X9931589Y-14384938D02*
X9922065Y-14346843D01*
X9922065Y-14346843D02*
X9922065Y-14299224D01*
X9922065Y-14299224D02*
X9931589Y-14261129D01*
X9931589Y-14261129D02*
X9941113Y-14242081D01*
X9941113Y-14242081D02*
X9950637Y-14232558D01*
X9950637Y-14232558D02*
X9969684Y-14223034D01*
X10122065Y-14403986D02*
X10131589Y-14413510D01*
X10131589Y-14413510D02*
X10122065Y-14423034D01*
X10122065Y-14423034D02*
X10112541Y-14413510D01*
X10112541Y-14413510D02*
X10122065Y-14403986D01*
X10122065Y-14403986D02*
X10122065Y-14423034D01*
X10255398Y-14223034D02*
X10274446Y-14223034D01*
X10274446Y-14223034D02*
X10293494Y-14232558D01*
X10293494Y-14232558D02*
X10303018Y-14242081D01*
X10303018Y-14242081D02*
X10312541Y-14261129D01*
X10312541Y-14261129D02*
X10322065Y-14299224D01*
X10322065Y-14299224D02*
X10322065Y-14346843D01*
X10322065Y-14346843D02*
X10312541Y-14384938D01*
X10312541Y-14384938D02*
X10303018Y-14403986D01*
X10303018Y-14403986D02*
X10293494Y-14413510D01*
X10293494Y-14413510D02*
X10274446Y-14423034D01*
X10274446Y-14423034D02*
X10255398Y-14423034D01*
X10255398Y-14423034D02*
X10236351Y-14413510D01*
X10236351Y-14413510D02*
X10226827Y-14403986D01*
X10226827Y-14403986D02*
X10217303Y-14384938D01*
X10217303Y-14384938D02*
X10207779Y-14346843D01*
X10207779Y-14346843D02*
X10207779Y-14299224D01*
X10207779Y-14299224D02*
X10217303Y-14261129D01*
X10217303Y-14261129D02*
X10226827Y-14242081D01*
X10226827Y-14242081D02*
X10236351Y-14232558D01*
X10236351Y-14232558D02*
X10255398Y-14223034D01*
X10493494Y-14289700D02*
X10493494Y-14423034D01*
X10445875Y-14213510D02*
X10398256Y-14356367D01*
X10398256Y-14356367D02*
X10522065Y-14356367D01*
X10636351Y-14223034D02*
X10655399Y-14223034D01*
X10655399Y-14223034D02*
X10674446Y-14232558D01*
X10674446Y-14232558D02*
X10683970Y-14242081D01*
X10683970Y-14242081D02*
X10693494Y-14261129D01*
X10693494Y-14261129D02*
X10703018Y-14299224D01*
X10703018Y-14299224D02*
X10703018Y-14346843D01*
X10703018Y-14346843D02*
X10693494Y-14384938D01*
X10693494Y-14384938D02*
X10683970Y-14403986D01*
X10683970Y-14403986D02*
X10674446Y-14413510D01*
X10674446Y-14413510D02*
X10655399Y-14423034D01*
X10655399Y-14423034D02*
X10636351Y-14423034D01*
X10636351Y-14423034D02*
X10617303Y-14413510D01*
X10617303Y-14413510D02*
X10607779Y-14403986D01*
X10607779Y-14403986D02*
X10598256Y-14384938D01*
X10598256Y-14384938D02*
X10588732Y-14346843D01*
X10588732Y-14346843D02*
X10588732Y-14299224D01*
X10588732Y-14299224D02*
X10598256Y-14261129D01*
X10598256Y-14261129D02*
X10607779Y-14242081D01*
X10607779Y-14242081D02*
X10617303Y-14232558D01*
X10617303Y-14232558D02*
X10636351Y-14223034D01*
X10779208Y-14242081D02*
X10788732Y-14232558D01*
X10788732Y-14232558D02*
X10807779Y-14223034D01*
X10807779Y-14223034D02*
X10855399Y-14223034D01*
X10855399Y-14223034D02*
X10874446Y-14232558D01*
X10874446Y-14232558D02*
X10883970Y-14242081D01*
X10883970Y-14242081D02*
X10893494Y-14261129D01*
X10893494Y-14261129D02*
X10893494Y-14280177D01*
X10893494Y-14280177D02*
X10883970Y-14308748D01*
X10883970Y-14308748D02*
X10769684Y-14423034D01*
X10769684Y-14423034D02*
X10893494Y-14423034D01*
X10969684Y-14223034D02*
X10969684Y-14261129D01*
X11045875Y-14223034D02*
X11045875Y-14261129D01*
X11341113Y-14499224D02*
X11331589Y-14489700D01*
X11331589Y-14489700D02*
X11312541Y-14461129D01*
X11312541Y-14461129D02*
X11303018Y-14442081D01*
X11303018Y-14442081D02*
X11293494Y-14413510D01*
X11293494Y-14413510D02*
X11283970Y-14365891D01*
X11283970Y-14365891D02*
X11283970Y-14327796D01*
X11283970Y-14327796D02*
X11293494Y-14280177D01*
X11293494Y-14280177D02*
X11303018Y-14251605D01*
X11303018Y-14251605D02*
X11312541Y-14232558D01*
X11312541Y-14232558D02*
X11331589Y-14203986D01*
X11331589Y-14203986D02*
X11341113Y-14194462D01*
X11503018Y-14289700D02*
X11503018Y-14423034D01*
X11455398Y-14213510D02*
X11407779Y-14356367D01*
X11407779Y-14356367D02*
X11531589Y-14356367D01*
X11588732Y-14223034D02*
X11712541Y-14223034D01*
X11712541Y-14223034D02*
X11645875Y-14299224D01*
X11645875Y-14299224D02*
X11674446Y-14299224D01*
X11674446Y-14299224D02*
X11693494Y-14308748D01*
X11693494Y-14308748D02*
X11703018Y-14318272D01*
X11703018Y-14318272D02*
X11712541Y-14337319D01*
X11712541Y-14337319D02*
X11712541Y-14384938D01*
X11712541Y-14384938D02*
X11703018Y-14403986D01*
X11703018Y-14403986D02*
X11693494Y-14413510D01*
X11693494Y-14413510D02*
X11674446Y-14423034D01*
X11674446Y-14423034D02*
X11617303Y-14423034D01*
X11617303Y-14423034D02*
X11598256Y-14413510D01*
X11598256Y-14413510D02*
X11588732Y-14403986D01*
X11950637Y-14423034D02*
X11950637Y-14223034D01*
X12036351Y-14423034D02*
X12036351Y-14318272D01*
X12036351Y-14318272D02*
X12026827Y-14299224D01*
X12026827Y-14299224D02*
X12007780Y-14289700D01*
X12007780Y-14289700D02*
X11979208Y-14289700D01*
X11979208Y-14289700D02*
X11960160Y-14299224D01*
X11960160Y-14299224D02*
X11950637Y-14308748D01*
X12160160Y-14423034D02*
X12141113Y-14413510D01*
X12141113Y-14413510D02*
X12131589Y-14403986D01*
X12131589Y-14403986D02*
X12122065Y-14384938D01*
X12122065Y-14384938D02*
X12122065Y-14327796D01*
X12122065Y-14327796D02*
X12131589Y-14308748D01*
X12131589Y-14308748D02*
X12141113Y-14299224D01*
X12141113Y-14299224D02*
X12160160Y-14289700D01*
X12160160Y-14289700D02*
X12188732Y-14289700D01*
X12188732Y-14289700D02*
X12207780Y-14299224D01*
X12207780Y-14299224D02*
X12217303Y-14308748D01*
X12217303Y-14308748D02*
X12226827Y-14327796D01*
X12226827Y-14327796D02*
X12226827Y-14384938D01*
X12226827Y-14384938D02*
X12217303Y-14403986D01*
X12217303Y-14403986D02*
X12207780Y-14413510D01*
X12207780Y-14413510D02*
X12188732Y-14423034D01*
X12188732Y-14423034D02*
X12160160Y-14423034D01*
X12341113Y-14423034D02*
X12322065Y-14413510D01*
X12322065Y-14413510D02*
X12312541Y-14394462D01*
X12312541Y-14394462D02*
X12312541Y-14223034D01*
X12493494Y-14413510D02*
X12474446Y-14423034D01*
X12474446Y-14423034D02*
X12436351Y-14423034D01*
X12436351Y-14423034D02*
X12417303Y-14413510D01*
X12417303Y-14413510D02*
X12407780Y-14394462D01*
X12407780Y-14394462D02*
X12407780Y-14318272D01*
X12407780Y-14318272D02*
X12417303Y-14299224D01*
X12417303Y-14299224D02*
X12436351Y-14289700D01*
X12436351Y-14289700D02*
X12474446Y-14289700D01*
X12474446Y-14289700D02*
X12493494Y-14299224D01*
X12493494Y-14299224D02*
X12503018Y-14318272D01*
X12503018Y-14318272D02*
X12503018Y-14337319D01*
X12503018Y-14337319D02*
X12407780Y-14356367D01*
X12579208Y-14413510D02*
X12598256Y-14423034D01*
X12598256Y-14423034D02*
X12636351Y-14423034D01*
X12636351Y-14423034D02*
X12655399Y-14413510D01*
X12655399Y-14413510D02*
X12664922Y-14394462D01*
X12664922Y-14394462D02*
X12664922Y-14384938D01*
X12664922Y-14384938D02*
X12655399Y-14365891D01*
X12655399Y-14365891D02*
X12636351Y-14356367D01*
X12636351Y-14356367D02*
X12607780Y-14356367D01*
X12607780Y-14356367D02*
X12588732Y-14346843D01*
X12588732Y-14346843D02*
X12579208Y-14327796D01*
X12579208Y-14327796D02*
X12579208Y-14318272D01*
X12579208Y-14318272D02*
X12588732Y-14299224D01*
X12588732Y-14299224D02*
X12607780Y-14289700D01*
X12607780Y-14289700D02*
X12636351Y-14289700D01*
X12636351Y-14289700D02*
X12655399Y-14299224D01*
X12731589Y-14499224D02*
X12741113Y-14489700D01*
X12741113Y-14489700D02*
X12760161Y-14461129D01*
X12760161Y-14461129D02*
X12769684Y-14442081D01*
X12769684Y-14442081D02*
X12779208Y-14413510D01*
X12779208Y-14413510D02*
X12788732Y-14365891D01*
X12788732Y-14365891D02*
X12788732Y-14327796D01*
X12788732Y-14327796D02*
X12779208Y-14280177D01*
X12779208Y-14280177D02*
X12769684Y-14251605D01*
X12769684Y-14251605D02*
X12760161Y-14232558D01*
X12760161Y-14232558D02*
X12741113Y-14203986D01*
X12741113Y-14203986D02*
X12731589Y-14194462D01*
D14*
X7749941Y-14634441D02*
X7749941Y-14556659D01*
X7672159Y-14556659D01*
X7672159Y-14634441D01*
X7749941Y-14634441D01*
D11*
X8131589Y-14687034D02*
X8017303Y-14687034D01*
X8074446Y-14687034D02*
X8074446Y-14487034D01*
X8074446Y-14487034D02*
X8055398Y-14515605D01*
X8055398Y-14515605D02*
X8036351Y-14534653D01*
X8036351Y-14534653D02*
X8017303Y-14544177D01*
X8217303Y-14667986D02*
X8226827Y-14677510D01*
X8226827Y-14677510D02*
X8217303Y-14687034D01*
X8217303Y-14687034D02*
X8207779Y-14677510D01*
X8207779Y-14677510D02*
X8217303Y-14667986D01*
X8217303Y-14667986D02*
X8217303Y-14687034D01*
X8417303Y-14687034D02*
X8303017Y-14687034D01*
X8360160Y-14687034D02*
X8360160Y-14487034D01*
X8360160Y-14487034D02*
X8341112Y-14515605D01*
X8341112Y-14515605D02*
X8322065Y-14534653D01*
X8322065Y-14534653D02*
X8303017Y-14544177D01*
X8541113Y-14487034D02*
X8560160Y-14487034D01*
X8560160Y-14487034D02*
X8579208Y-14496558D01*
X8579208Y-14496558D02*
X8588732Y-14506081D01*
X8588732Y-14506081D02*
X8598255Y-14525129D01*
X8598255Y-14525129D02*
X8607779Y-14563224D01*
X8607779Y-14563224D02*
X8607779Y-14610843D01*
X8607779Y-14610843D02*
X8598255Y-14648938D01*
X8598255Y-14648938D02*
X8588732Y-14667986D01*
X8588732Y-14667986D02*
X8579208Y-14677510D01*
X8579208Y-14677510D02*
X8560160Y-14687034D01*
X8560160Y-14687034D02*
X8541113Y-14687034D01*
X8541113Y-14687034D02*
X8522065Y-14677510D01*
X8522065Y-14677510D02*
X8512541Y-14667986D01*
X8512541Y-14667986D02*
X8503017Y-14648938D01*
X8503017Y-14648938D02*
X8493494Y-14610843D01*
X8493494Y-14610843D02*
X8493494Y-14563224D01*
X8493494Y-14563224D02*
X8503017Y-14525129D01*
X8503017Y-14525129D02*
X8512541Y-14506081D01*
X8512541Y-14506081D02*
X8522065Y-14496558D01*
X8522065Y-14496558D02*
X8541113Y-14487034D01*
X8731589Y-14487034D02*
X8750636Y-14487034D01*
X8750636Y-14487034D02*
X8769684Y-14496558D01*
X8769684Y-14496558D02*
X8779208Y-14506081D01*
X8779208Y-14506081D02*
X8788732Y-14525129D01*
X8788732Y-14525129D02*
X8798255Y-14563224D01*
X8798255Y-14563224D02*
X8798255Y-14610843D01*
X8798255Y-14610843D02*
X8788732Y-14648938D01*
X8788732Y-14648938D02*
X8779208Y-14667986D01*
X8779208Y-14667986D02*
X8769684Y-14677510D01*
X8769684Y-14677510D02*
X8750636Y-14687034D01*
X8750636Y-14687034D02*
X8731589Y-14687034D01*
X8731589Y-14687034D02*
X8712541Y-14677510D01*
X8712541Y-14677510D02*
X8703017Y-14667986D01*
X8703017Y-14667986D02*
X8693494Y-14648938D01*
X8693494Y-14648938D02*
X8683970Y-14610843D01*
X8683970Y-14610843D02*
X8683970Y-14563224D01*
X8683970Y-14563224D02*
X8693494Y-14525129D01*
X8693494Y-14525129D02*
X8703017Y-14506081D01*
X8703017Y-14506081D02*
X8712541Y-14496558D01*
X8712541Y-14496558D02*
X8731589Y-14487034D01*
X8883970Y-14687034D02*
X8883970Y-14553700D01*
X8883970Y-14572748D02*
X8893494Y-14563224D01*
X8893494Y-14563224D02*
X8912541Y-14553700D01*
X8912541Y-14553700D02*
X8941113Y-14553700D01*
X8941113Y-14553700D02*
X8960160Y-14563224D01*
X8960160Y-14563224D02*
X8969684Y-14582272D01*
X8969684Y-14582272D02*
X8969684Y-14687034D01*
X8969684Y-14582272D02*
X8979208Y-14563224D01*
X8979208Y-14563224D02*
X8998255Y-14553700D01*
X8998255Y-14553700D02*
X9026827Y-14553700D01*
X9026827Y-14553700D02*
X9045875Y-14563224D01*
X9045875Y-14563224D02*
X9055398Y-14582272D01*
X9055398Y-14582272D02*
X9055398Y-14687034D01*
X9150636Y-14687034D02*
X9150636Y-14553700D01*
X9150636Y-14572748D02*
X9160160Y-14563224D01*
X9160160Y-14563224D02*
X9179208Y-14553700D01*
X9179208Y-14553700D02*
X9207779Y-14553700D01*
X9207779Y-14553700D02*
X9226827Y-14563224D01*
X9226827Y-14563224D02*
X9236351Y-14582272D01*
X9236351Y-14582272D02*
X9236351Y-14687034D01*
X9236351Y-14582272D02*
X9245875Y-14563224D01*
X9245875Y-14563224D02*
X9264922Y-14553700D01*
X9264922Y-14553700D02*
X9293494Y-14553700D01*
X9293494Y-14553700D02*
X9312541Y-14563224D01*
X9312541Y-14563224D02*
X9322065Y-14582272D01*
X9322065Y-14582272D02*
X9322065Y-14687034D01*
X9712541Y-14477510D02*
X9541113Y-14734653D01*
X9969684Y-14487034D02*
X9988732Y-14487034D01*
X9988732Y-14487034D02*
X10007779Y-14496558D01*
X10007779Y-14496558D02*
X10017303Y-14506081D01*
X10017303Y-14506081D02*
X10026827Y-14525129D01*
X10026827Y-14525129D02*
X10036351Y-14563224D01*
X10036351Y-14563224D02*
X10036351Y-14610843D01*
X10036351Y-14610843D02*
X10026827Y-14648938D01*
X10026827Y-14648938D02*
X10017303Y-14667986D01*
X10017303Y-14667986D02*
X10007779Y-14677510D01*
X10007779Y-14677510D02*
X9988732Y-14687034D01*
X9988732Y-14687034D02*
X9969684Y-14687034D01*
X9969684Y-14687034D02*
X9950637Y-14677510D01*
X9950637Y-14677510D02*
X9941113Y-14667986D01*
X9941113Y-14667986D02*
X9931589Y-14648938D01*
X9931589Y-14648938D02*
X9922065Y-14610843D01*
X9922065Y-14610843D02*
X9922065Y-14563224D01*
X9922065Y-14563224D02*
X9931589Y-14525129D01*
X9931589Y-14525129D02*
X9941113Y-14506081D01*
X9941113Y-14506081D02*
X9950637Y-14496558D01*
X9950637Y-14496558D02*
X9969684Y-14487034D01*
X10122065Y-14667986D02*
X10131589Y-14677510D01*
X10131589Y-14677510D02*
X10122065Y-14687034D01*
X10122065Y-14687034D02*
X10112541Y-14677510D01*
X10112541Y-14677510D02*
X10122065Y-14667986D01*
X10122065Y-14667986D02*
X10122065Y-14687034D01*
X10255398Y-14487034D02*
X10274446Y-14487034D01*
X10274446Y-14487034D02*
X10293494Y-14496558D01*
X10293494Y-14496558D02*
X10303018Y-14506081D01*
X10303018Y-14506081D02*
X10312541Y-14525129D01*
X10312541Y-14525129D02*
X10322065Y-14563224D01*
X10322065Y-14563224D02*
X10322065Y-14610843D01*
X10322065Y-14610843D02*
X10312541Y-14648938D01*
X10312541Y-14648938D02*
X10303018Y-14667986D01*
X10303018Y-14667986D02*
X10293494Y-14677510D01*
X10293494Y-14677510D02*
X10274446Y-14687034D01*
X10274446Y-14687034D02*
X10255398Y-14687034D01*
X10255398Y-14687034D02*
X10236351Y-14677510D01*
X10236351Y-14677510D02*
X10226827Y-14667986D01*
X10226827Y-14667986D02*
X10217303Y-14648938D01*
X10217303Y-14648938D02*
X10207779Y-14610843D01*
X10207779Y-14610843D02*
X10207779Y-14563224D01*
X10207779Y-14563224D02*
X10217303Y-14525129D01*
X10217303Y-14525129D02*
X10226827Y-14506081D01*
X10226827Y-14506081D02*
X10236351Y-14496558D01*
X10236351Y-14496558D02*
X10255398Y-14487034D01*
X10493494Y-14553700D02*
X10493494Y-14687034D01*
X10445875Y-14477510D02*
X10398256Y-14620367D01*
X10398256Y-14620367D02*
X10522065Y-14620367D01*
X10579208Y-14487034D02*
X10703018Y-14487034D01*
X10703018Y-14487034D02*
X10636351Y-14563224D01*
X10636351Y-14563224D02*
X10664922Y-14563224D01*
X10664922Y-14563224D02*
X10683970Y-14572748D01*
X10683970Y-14572748D02*
X10693494Y-14582272D01*
X10693494Y-14582272D02*
X10703018Y-14601319D01*
X10703018Y-14601319D02*
X10703018Y-14648938D01*
X10703018Y-14648938D02*
X10693494Y-14667986D01*
X10693494Y-14667986D02*
X10683970Y-14677510D01*
X10683970Y-14677510D02*
X10664922Y-14687034D01*
X10664922Y-14687034D02*
X10607779Y-14687034D01*
X10607779Y-14687034D02*
X10588732Y-14677510D01*
X10588732Y-14677510D02*
X10579208Y-14667986D01*
X10769684Y-14487034D02*
X10893494Y-14487034D01*
X10893494Y-14487034D02*
X10826827Y-14563224D01*
X10826827Y-14563224D02*
X10855399Y-14563224D01*
X10855399Y-14563224D02*
X10874446Y-14572748D01*
X10874446Y-14572748D02*
X10883970Y-14582272D01*
X10883970Y-14582272D02*
X10893494Y-14601319D01*
X10893494Y-14601319D02*
X10893494Y-14648938D01*
X10893494Y-14648938D02*
X10883970Y-14667986D01*
X10883970Y-14667986D02*
X10874446Y-14677510D01*
X10874446Y-14677510D02*
X10855399Y-14687034D01*
X10855399Y-14687034D02*
X10798256Y-14687034D01*
X10798256Y-14687034D02*
X10779208Y-14677510D01*
X10779208Y-14677510D02*
X10769684Y-14667986D01*
X10969684Y-14487034D02*
X10969684Y-14525129D01*
X11045875Y-14487034D02*
X11045875Y-14525129D01*
X11341113Y-14763224D02*
X11331589Y-14753700D01*
X11331589Y-14753700D02*
X11312541Y-14725129D01*
X11312541Y-14725129D02*
X11303018Y-14706081D01*
X11303018Y-14706081D02*
X11293494Y-14677510D01*
X11293494Y-14677510D02*
X11283970Y-14629891D01*
X11283970Y-14629891D02*
X11283970Y-14591796D01*
X11283970Y-14591796D02*
X11293494Y-14544177D01*
X11293494Y-14544177D02*
X11303018Y-14515605D01*
X11303018Y-14515605D02*
X11312541Y-14496558D01*
X11312541Y-14496558D02*
X11331589Y-14467986D01*
X11331589Y-14467986D02*
X11341113Y-14458462D01*
X11407779Y-14506081D02*
X11417303Y-14496558D01*
X11417303Y-14496558D02*
X11436351Y-14487034D01*
X11436351Y-14487034D02*
X11483970Y-14487034D01*
X11483970Y-14487034D02*
X11503018Y-14496558D01*
X11503018Y-14496558D02*
X11512541Y-14506081D01*
X11512541Y-14506081D02*
X11522065Y-14525129D01*
X11522065Y-14525129D02*
X11522065Y-14544177D01*
X11522065Y-14544177D02*
X11512541Y-14572748D01*
X11512541Y-14572748D02*
X11398256Y-14687034D01*
X11398256Y-14687034D02*
X11522065Y-14687034D01*
X11693494Y-14553700D02*
X11693494Y-14687034D01*
X11645875Y-14477510D02*
X11598256Y-14620367D01*
X11598256Y-14620367D02*
X11722065Y-14620367D01*
X11950637Y-14687034D02*
X11950637Y-14487034D01*
X12036351Y-14687034D02*
X12036351Y-14582272D01*
X12036351Y-14582272D02*
X12026827Y-14563224D01*
X12026827Y-14563224D02*
X12007780Y-14553700D01*
X12007780Y-14553700D02*
X11979208Y-14553700D01*
X11979208Y-14553700D02*
X11960160Y-14563224D01*
X11960160Y-14563224D02*
X11950637Y-14572748D01*
X12160160Y-14687034D02*
X12141113Y-14677510D01*
X12141113Y-14677510D02*
X12131589Y-14667986D01*
X12131589Y-14667986D02*
X12122065Y-14648938D01*
X12122065Y-14648938D02*
X12122065Y-14591796D01*
X12122065Y-14591796D02*
X12131589Y-14572748D01*
X12131589Y-14572748D02*
X12141113Y-14563224D01*
X12141113Y-14563224D02*
X12160160Y-14553700D01*
X12160160Y-14553700D02*
X12188732Y-14553700D01*
X12188732Y-14553700D02*
X12207780Y-14563224D01*
X12207780Y-14563224D02*
X12217303Y-14572748D01*
X12217303Y-14572748D02*
X12226827Y-14591796D01*
X12226827Y-14591796D02*
X12226827Y-14648938D01*
X12226827Y-14648938D02*
X12217303Y-14667986D01*
X12217303Y-14667986D02*
X12207780Y-14677510D01*
X12207780Y-14677510D02*
X12188732Y-14687034D01*
X12188732Y-14687034D02*
X12160160Y-14687034D01*
X12341113Y-14687034D02*
X12322065Y-14677510D01*
X12322065Y-14677510D02*
X12312541Y-14658462D01*
X12312541Y-14658462D02*
X12312541Y-14487034D01*
X12493494Y-14677510D02*
X12474446Y-14687034D01*
X12474446Y-14687034D02*
X12436351Y-14687034D01*
X12436351Y-14687034D02*
X12417303Y-14677510D01*
X12417303Y-14677510D02*
X12407780Y-14658462D01*
X12407780Y-14658462D02*
X12407780Y-14582272D01*
X12407780Y-14582272D02*
X12417303Y-14563224D01*
X12417303Y-14563224D02*
X12436351Y-14553700D01*
X12436351Y-14553700D02*
X12474446Y-14553700D01*
X12474446Y-14553700D02*
X12493494Y-14563224D01*
X12493494Y-14563224D02*
X12503018Y-14582272D01*
X12503018Y-14582272D02*
X12503018Y-14601319D01*
X12503018Y-14601319D02*
X12407780Y-14620367D01*
X12579208Y-14677510D02*
X12598256Y-14687034D01*
X12598256Y-14687034D02*
X12636351Y-14687034D01*
X12636351Y-14687034D02*
X12655399Y-14677510D01*
X12655399Y-14677510D02*
X12664922Y-14658462D01*
X12664922Y-14658462D02*
X12664922Y-14648938D01*
X12664922Y-14648938D02*
X12655399Y-14629891D01*
X12655399Y-14629891D02*
X12636351Y-14620367D01*
X12636351Y-14620367D02*
X12607780Y-14620367D01*
X12607780Y-14620367D02*
X12588732Y-14610843D01*
X12588732Y-14610843D02*
X12579208Y-14591796D01*
X12579208Y-14591796D02*
X12579208Y-14582272D01*
X12579208Y-14582272D02*
X12588732Y-14563224D01*
X12588732Y-14563224D02*
X12607780Y-14553700D01*
X12607780Y-14553700D02*
X12636351Y-14553700D01*
X12636351Y-14553700D02*
X12655399Y-14563224D01*
X12731589Y-14763224D02*
X12741113Y-14753700D01*
X12741113Y-14753700D02*
X12760161Y-14725129D01*
X12760161Y-14725129D02*
X12769684Y-14706081D01*
X12769684Y-14706081D02*
X12779208Y-14677510D01*
X12779208Y-14677510D02*
X12788732Y-14629891D01*
X12788732Y-14629891D02*
X12788732Y-14591796D01*
X12788732Y-14591796D02*
X12779208Y-14544177D01*
X12779208Y-14544177D02*
X12769684Y-14515605D01*
X12769684Y-14515605D02*
X12760161Y-14496558D01*
X12760161Y-14496558D02*
X12741113Y-14467986D01*
X12741113Y-14467986D02*
X12731589Y-14458462D01*
M02*
